<?xml version="1.0" encoding="utf-8"?>
<!-- Generator: Adobe Illustrator 18.0.0, SVG Export Plug-In . SVG Version: 6.00 Build 0)  -->
<!DOCTYPE svg PUBLIC "-//W3C//DTD SVG 1.1//EN" "http://www.w3.org/Graphics/SVG/1.1/DTD/svg11.dtd">
<svg version="1.1" id="Layer_1" xmlns="http://www.w3.org/2000/svg" xmlns:xlink="http://www.w3.org/1999/xlink" x="0px" y="0px"
	 viewBox="0 0 40 40" enable-background="new 0 0 40 40" xml:space="preserve">
<g id="mr_90s">
	<g id="mr_90s_1_">
		<g>
			<path fill="#F8EB4A" stroke="#000000" stroke-width="0.1918" d="M31,12.8c2.3,6-1.6,14.3-10.7,14.8c-9.7,0.5-13.3-8.1-9.9-14.8
				c0.1-0.3,1.1-1.7,1.4-2.1c2.5-2.8,6.2-4.4,9.6-4.3c3,0.1,5.9,1.4,7.9,3.6C30.1,10.8,30.6,11.8,31,12.8z"/>
			<path fill="#FFFFFF" stroke="#000000" stroke-width="0.1918" stroke-miterlimit="10" d="M28.1,8.8c-1.8,1.1-16.6,2.3-16.6,2.3
				l-0.6,0.9c4.9,0.8,18.4-2,18.4-2L28.1,8.8z"/>
			<path d="M15.7,14.3c0,0.4,0.2,0.8,0.5,0.8c0.4,0,1-0.4,1.2-1.2c0.2-0.9-0.3-1.3-0.9-0.9C16,13.2,15.7,13.8,15.7,14.3z"/>
			<path d="M20.1,14.1c0,0.4,0.2,0.8,0.5,0.8c0.4,0,1-0.4,1.2-1.2c0.2-0.9-0.3-1.3-0.9-0.9C20.5,13,20.1,13.6,20.1,14.1z"/>
			<path stroke="#000000" stroke-width="0.1918" stroke-miterlimit="10" d="M15.3,17.6c0,0,1.1,3.3,3.5,2.8c2.3-0.5,2.8-3,2.8-3
				s2.4,7.1-2.2,7.7C14.8,25.9,15.3,17.6,15.3,17.6z"/>
			<path fill="#00AEFF" stroke="#000000" stroke-width="0.1918" stroke-miterlimit="10" d="M15.5,27l-2.4,2.4c-0.9-0.8-4.8,0-4.8,0
				s-1,0.3-0.9,1s5.4,2.9,5.5,2.3c0.1-0.6,4.8-4.6,4.8-4.6l0.4-0.4L15.5,27z"/>
			<ellipse fill="none" stroke="#000000" stroke-width="0.1918" stroke-miterlimit="10" cx="11.1" cy="33" rx="0.6" ry="0.5"/>
			<ellipse fill="none" stroke="#000000" stroke-width="0.1918" stroke-miterlimit="10" cx="10" cy="32.5" rx="0.6" ry="0.5"/>
			<ellipse fill="none" stroke="#000000" stroke-width="0.1918" stroke-miterlimit="10" cx="8.9" cy="32" rx="0.6" ry="0.5"/>
			<ellipse fill="none" stroke="#000000" stroke-width="0.1918" stroke-miterlimit="10" cx="7.9" cy="31.4" rx="0.6" ry="0.5"/>
			
				<ellipse transform="matrix(-9.564685e-02 -0.9954 0.9954 -9.564685e-02 -2.6671 61.1092)" fill="none" stroke="#000000" stroke-width="0.1918" stroke-miterlimit="10" cx="26.4" cy="31.8" rx="0.6" ry="0.5"/>
			
				<ellipse transform="matrix(-9.564685e-02 -0.9954 0.9954 -9.564685e-02 -4.1894 62.0002)" fill="none" stroke="#000000" stroke-width="0.1918" stroke-miterlimit="10" cx="26.1" cy="32.9" rx="0.6" ry="0.5"/>
			
				<ellipse transform="matrix(-9.564685e-02 -0.9954 0.9954 -9.564685e-02 -5.7303 62.9162)" fill="none" stroke="#000000" stroke-width="0.1918" stroke-miterlimit="10" cx="25.7" cy="34.1" rx="0.6" ry="0.5"/>
			
				<ellipse transform="matrix(-9.564685e-02 -0.9954 0.9954 -9.564685e-02 -7.2801 63.5279)" fill="none" stroke="#000000" stroke-width="0.1918" stroke-miterlimit="10" cx="25.2" cy="35.1" rx="0.6" ry="0.5"/>
			<path fill="#00AEFF" stroke="#000000" stroke-width="0.1918" stroke-miterlimit="10" d="M24.5,30.3l-1.2,1.1
				c-2.5-0.2-2.3-3.7-2.3-3.7l0,0.8c1.9-0.5,1.9-0.5,1.9-0.5l0-0.7C22.9,27.2,22.5,29.2,24.5,30.3c0.4,0.2,0.9,0.4,1.6,0.5
				c0,0-0.8,4.9-2.2,4.4c-1.4-0.5-0.7-3.6-0.7-3.6l0.1-0.2"/>
			<path fill="#FFFFFF" stroke="#000000" stroke-width="0.1918" stroke-miterlimit="10" d="M14.1,28.4c0,0,1.8,0.3,2.1,0.9l0.6-0.4
				c-0.3-0.8-2.1-1-2.1-1L14.1,28.4z"/>
			<path d="M11.3,29.1c0,0-0.2,1.4,0.1,1.5c0.4,0.1,0.4-1.5,0.4-1.5H11.3z"/>
			<path d="M10.6,29.1c0,0-0.2,1.2,0.1,1.3s0.4-1.3,0.4-1.3H10.6z"/>
			<path d="M9.7,29.2c0,0-0.2,1,0.2,1.1c0.4,0.1,0.3-1.1,0.3-1.1L9.7,29.2z"/>
			<path d="M23.1,32.2c0,0,1.4,0.4,1.5,0c0.2-0.3-1.5-0.6-1.5-0.6L23.1,32.2z"/>
			<path fill="#F8EB4A" stroke="#000000" stroke-width="0.1918" stroke-miterlimit="10" d="M9.1,17.2c0,0-3,0.2-3.4-0.2
				c-0.4-0.4-1.3,0.4-1.3,0.4s-1.1,1.7-2,1.1S3,17.3,3,17.3s-1.5,0.9-1.8,0s1.7-0.8,1.7-0.8s-1.6,0.2-1.5-0.6
				c0.1-0.8,2.2-0.2,2.2-0.2S2,13.8,3.3,13.3c1.3-0.6,1.2,1.6,1.8,2c0.6,0.4,4.3,0.4,4.3,0.4L9.1,17.2z"/>
			<path d="M23,32.9c0,0,1.2,0.3,1.3,0s-1.3-0.5-1.3-0.5L23,32.9z"/>
			<path d="M23,33.8c0,0,1,0.2,1.1-0.1c0.1-0.4-1.1-0.4-1.1-0.4L23,33.8z"/>
			<path fill="#F8EB4A" stroke="#000000" stroke-width="0.1918" stroke-miterlimit="10" d="M31.7,17.6c0.9-0.1,3.2-1.5,3.2-1.5
				s1.1-0.1,1.9-0.3c0.8-0.1,2.1-0.7,2-1.3S36,15,36.6,14.9s1.7-1.1,1.4-1.5c-0.3-0.4-1.8,0.8-1.8,0.8s1.5-1.3,0.9-1.9
				c-0.7-0.6-1.7,1.1-1.7,1.1s0.1-1.2-0.7-1.2c-0.8,0-0.7,2-0.6,2.3c0,0.3-2.4,1.3-2.4,1.3V17.6z"/>
			<path fill="#FFFFFF" stroke="#000000" stroke-width="0.1918" stroke-miterlimit="10" d="M14.6,30.8c-0.2-0.7-1.5-1.4-1.5-1.4
				l0.7-0.7c0,0,1.5,0.2,2,1L14.6,30.8z"/>
			<path fill="#FFFFFF" stroke="#000000" stroke-width="4.794727e-02" stroke-miterlimit="10" d="M5.7,15.5c0,0-0.1,0.8,0,1.4
				c0.1,0.6,1.6,0.3,1.6,0.3s0.2-1.5,0-1.5S5.7,15.5,5.7,15.5z"/>
			<path fill="#FFFFFF" stroke="#000000" stroke-width="4.794727e-02" stroke-miterlimit="10" d="M32.8,15.3c0,0,0.3,1.8,0.5,1.7
				c0.2-0.1,1.1-0.6,1.1-0.6s-0.5-1.6-0.8-1.5C33.4,15,32.8,15.3,32.8,15.3z"/>
			<path fill="#F8EB4A" stroke="#000000" stroke-width="0.1918" stroke-miterlimit="10" d="M14.6,27.9l0.9-0.9l2.6,0.6l-1.3,1.2
				C16.8,28.9,16.1,28,14.6,27.9z"/>
			<path fill="#FFFFFF" d="M24.5,30.3"/>
			<path fill="#FFFFFF" stroke="#000000" stroke-width="0.1438" stroke-miterlimit="10" d="M22.9,28.6c-0.8,0-1.8,0.7-1.8,0.7
				L21,28.6l1.9-0.7L22.9,28.6z"/>
			<path fill="#FFFFFF" stroke="#000000" stroke-width="0.1918" stroke-miterlimit="10" d="M23.3,31.4l1.2-1.1c0,0-0.9-0.7-1.1-0.9
				c-0.3-0.6-1.8,0.9-1.8,0.9S22.2,31.3,23.3,31.4z"/>
			<path fill="#F8EB4A" stroke="#272425" stroke-width="0.1438" d="M21,27.6l2-0.4l-0.1,0.7L21,28.5C21,28.5,20.9,28,21,27.6z"/>
		</g>
	</g>
</g>
</svg>
