<?xml version="1.0" encoding="utf-8"?>
<!-- Generator: Adobe Illustrator 18.0.0, SVG Export Plug-In . SVG Version: 6.00 Build 0)  -->
<!DOCTYPE svg PUBLIC "-//W3C//DTD SVG 1.1//EN" "http://www.w3.org/Graphics/SVG/1.1/DTD/svg11.dtd">
<svg version="1.1" id="Layer_1" xmlns="http://www.w3.org/2000/svg" xmlns:xlink="http://www.w3.org/1999/xlink" x="0px" y="0px"
	 viewBox="0 0 400 400" enable-background="new 0 0 400 400" xml:space="preserve">
<g id="mr_90s">
	<path fill="#F8EB4A" stroke="#000000" stroke-width="0.1891" d="M306.4,121.2c22.3,58.2-15.6,137.8-103.2,142.4
		c-93.5,4.9-128.3-78.4-94.9-142.2c1.4-2.7,10.5-16.5,13.9-20.4c23.6-27.4,59.6-42.3,92.1-41.6c28.4,0.6,57,13.2,76,34.9
		C297,102.1,302.6,111.1,306.4,121.2z"/>
	<path fill="#FFFFFF" stroke="#000000" stroke-width="0.1891" stroke-miterlimit="10" d="M278.4,82.9c-17.4,10.9-159.6,22-159.6,22
		l-5.9,9.1c47.3,7.9,177.3-19.7,177.3-19.7L278.4,82.9z"/>
	<path d="M158.9,135.4c-0.3,4.1,1.5,7.3,4.7,7.6c4.1,0.3,9.6-4.3,11.5-11.3c2.2-8.4-2.5-12.6-8.5-9.1
		C162.2,125.1,159.2,130.8,158.9,135.4z"/>
	<path d="M201.4,133.5c-0.3,4.1,1.5,7.3,4.7,7.6c4.1,0.3,9.6-4.3,11.5-11.3c2.2-8.4-2.5-12.6-8.5-9.1
		C204.7,123.3,201.7,129,201.4,133.5z"/>
	<path stroke="#000000" stroke-width="0.1891" stroke-miterlimit="10" d="M155.1,167.5c0,0,10.6,31.4,33.2,26.7s26.7-28.4,26.7-28.4
		s23.5,68.1-20.8,74.5C150,246.8,155.1,167.5,155.1,167.5z"/>
	<path fill="#00AEFF" stroke="#000000" stroke-width="0.1891" stroke-miterlimit="10" d="M156.7,257.7l-22.8,23.2
		c-8.8-7.4-46.1-0.5-46.1-0.5s-9.2,3.2-8.7,9.7c0.5,6.5,51.6,27.7,52.5,22.1s46.6-44.3,46.6-44.3l3.7-4.2L156.7,257.7z"/>
	<ellipse fill="none" stroke="#000000" stroke-width="0.1891" stroke-miterlimit="10" cx="114.4" cy="314.9" rx="5.4" ry="4.5"/>
	<ellipse fill="none" stroke="#000000" stroke-width="0.1891" stroke-miterlimit="10" cx="103.9" cy="310.4" rx="5.4" ry="4.5"/>
	<ellipse fill="none" stroke="#000000" stroke-width="0.1891" stroke-miterlimit="10" cx="93.1" cy="306" rx="5.4" ry="4.5"/>
	<ellipse fill="none" stroke="#000000" stroke-width="0.1891" stroke-miterlimit="10" cx="83.9" cy="300.3" rx="5.4" ry="4.5"/>
	
		<ellipse transform="matrix(-9.564685e-02 -0.9954 0.9954 -9.564685e-02 -14.8823 593.3824)" fill="none" stroke="#000000" stroke-width="0.1891" stroke-miterlimit="10" cx="262.1" cy="303.5" rx="5.4" ry="4.5"/>
	
		<ellipse transform="matrix(-9.564685e-02 -0.9954 0.9954 -9.564685e-02 -29.5253 601.9539)" fill="none" stroke="#000000" stroke-width="0.1891" stroke-miterlimit="10" cx="258.7" cy="314.4" rx="5.4" ry="4.5"/>
	
		<ellipse transform="matrix(-9.564685e-02 -0.9954 0.9954 -9.564685e-02 -44.3474 610.7648)" fill="none" stroke="#000000" stroke-width="0.1891" stroke-miterlimit="10" cx="255.3" cy="325.5" rx="5.4" ry="4.5"/>
	
		<ellipse transform="matrix(-9.564685e-02 -0.9954 0.9954 -9.564685e-02 -59.2546 616.6481)" fill="none" stroke="#000000" stroke-width="0.1891" stroke-miterlimit="10" cx="250.5" cy="335.2" rx="5.4" ry="4.5"/>
	<path fill="#00AEFF" stroke="#000000" stroke-width="0.1891" stroke-miterlimit="10" d="M210,271.9l-0.3-8.1
		C209.8,263.8,209.5,267.2,210,271.9z"/>
	<path fill="#00AEFF" stroke="#000000" stroke-width="0.1891" stroke-miterlimit="10" d="M243.3,289.3c-11.6-6.3-14.5-15.9-15-22.4
		l0,0c0,0,0,0-18.2,5.1c0.6,5.8,2.2,13.5,6.6,19.4c0.1,0.1,0.2,0.2,0.3,0.4c0.4,0.2,0.7,0.5,1,0.8c0.9,1,1.8,2,2.9,2.9
		c1.9,1.6,4.2,2.4,6.4,3.5c1.4,0.4,2.8,0.7,4.4,0.9l-0.6,1.7c0,0-7,30.1,6.5,35s20.9-42.3,20.9-42.3
		C252.2,293.2,247.2,291.4,243.3,289.3z"/>
	<path fill="#00AEFF" stroke="#000000" stroke-width="0.1891" stroke-miterlimit="10" d="M228.3,266.8l0.3-6.9
		C228.6,259.9,228,262.8,228.3,266.8z"/>
	<path fill="#FFFFFF" stroke="#000000" stroke-width="0.1891" stroke-miterlimit="10" d="M143.4,271.6c0,0,17,2.5,20.5,8.3l5.4-3.8
		c-2.7-7.9-20.7-9.7-20.7-9.7L143.4,271.6z"/>
	<path d="M117,277.5c0,0-2.1,13.5,1.4,14.7c3.5,1.2,3.9-14.7,3.9-14.7H117z"/>
	<path d="M109.7,277.5c0,0-2,11.6,1.3,12.6s3.7-12.6,3.7-12.6H109.7z"/>
	<path d="M106.4,277.7c-1,0.2-2,0.3-3,0.4c-0.1,0-0.2,0.1-0.3,0.1c0,0-0.1,0-0.1,0c-0.6,0.1-1.1,0.1-1.7,0.1
		c-0.3,2.1-0.9,9.4,2.1,9.9c3.2,0.6,3.4-8.8,3.4-10.5C106.6,277.7,106.5,277.7,106.4,277.7C106.4,277.7,106.4,277.7,106.4,277.7z"/>
	<path d="M230,307.5c0,0,13.2,3.7,14.8,0.4c1.6-3.3-14.1-5.7-14.1-5.7L230,307.5z"/>
	<path fill="#F8EB4A" stroke="#000000" stroke-width="0.1891" stroke-miterlimit="10" d="M95.9,163.1c0,0-28.9,2.1-33.1-1.5
		c-4.2-3.5-12.9,3.9-12.9,3.9S39.1,182,30.3,175.7c-8.8-6.3,6.2-11.7,6.2-11.7s-14.8,8.5-17.1,0c-2.3-8.5,16.6-7.9,16.6-7.9
		s-15.5,1.7-14.8-5.7c0.7-7.4,20.8-2,20.8-2s-14.5-17.6-2.3-22.9s11.3,15.7,17.3,19.4s41.4,3.5,41.4,3.5L95.9,163.1z"/>
	<path d="M229.1,314.8c0,0,11.3,3.4,12.6,0.2c1.4-3.2-12-5.2-12-5.2L229.1,314.8z"/>
	<path d="M229.4,323.4c0,0,9.7,2.2,10.6-1.3c0.9-3.5-10.5-4.1-10.5-4.1L229.4,323.4z"/>
	<path fill="#F8EB4A" stroke="#000000" stroke-width="0.1891" stroke-miterlimit="10" d="M312.7,167.5c8.2-0.8,31-14.8,31-14.8
		s10.1-1.4,18-2.8c7.8-1.4,20.3-6.5,18.9-12.6c-1.4-6.2-26.3,5.2-20.8,3.9s16.6-10.2,13.4-14.2c-3.2-4-17.5,7.7-17.5,7.7
		s14.8-12.5,8.3-18.1S347.9,127,347.9,127s0.9-11.6-6.5-11.6c-7.4,0.1-6.5,19.3-6,22.1c0.5,2.8-22.7,12.4-22.7,12.4V167.5z"/>
	<path fill="#FFFFFF" stroke="#000000" stroke-width="0.1891" stroke-miterlimit="10" d="M148.5,294.2c-1.5-7-14.6-13.3-14.6-13.3
		l6.5-6.6c0,0,14.4,2.4,19.4,9.7L148.5,294.2z"/>
	<path fill="#FFFFFF" stroke="#000000" stroke-width="4.727954e-02" stroke-miterlimit="10" d="M62.8,146.7c0,0-1.4,7.6,0,13.2
		c1.4,5.6,15,2.8,15,2.8s2.3-14.7,0-14.8C75.5,147.9,62.8,146.7,62.8,146.7z"/>
	<path fill="#FFFFFF" stroke="#000000" stroke-width="4.727954e-02" stroke-miterlimit="10" d="M323.2,145.3c0,0,2.5,17.5,4.7,16.3
		c2.2-1.1,10.6-5.8,10.6-5.8s-5.2-15.8-7.3-14.6C328.9,142.4,323.2,145.3,323.2,145.3z"/>
	<path fill="#F8EB4A" stroke="#000000" stroke-width="0.1891" stroke-miterlimit="10" d="M148.5,266l8.2-8.3l25.1,6.1l-12.7,11.9
		C169.2,275.7,162.4,267.1,148.5,266z"/>
	<path fill="#FFFFFF" d="M243.3,289.3"/>
	<path fill="#FFFFFF" stroke="#000000" stroke-width="0.1418" stroke-miterlimit="10" d="M211,279.5c3.6-2.1,11.3-6.4,18.3-7.6
		c-0.5-2-0.8-3.9-0.9-6l-18.7,7.4C209.9,275.5,210.4,277.5,211,279.5z"/>
	<path fill="#FFFFFF" stroke="#000000" stroke-width="0.1891" stroke-miterlimit="10" d="M233,280.4c-0.2-0.4-0.5-0.6-0.8-0.8
		c-2.7,1.6-5.3,3.8-8,5.4c-2.8,1.7-5.6,3.5-8.5,5c1.7,2.2,7.6,9,15.9,9.8l11.6-10.5C243.3,289.3,234.3,282.4,233,280.4z"/>
	<path fill="#F8EB4A" stroke="#272425" stroke-width="0.1418" d="M220.1,261.6c-2.8,0.4-5.7,0.9-8.5,1.1c-0.8,0.1-1.6,0.2-2.4,0.3
		c-0.7,3.9,0.3,10.1,0.3,10.1l18.5-6.7l0.4-6.8C225.9,260.8,223,261.2,220.1,261.6z"/>
</g>
</svg>
