<?xml version="1.0" encoding="utf-8"?>
<!-- Generator: Adobe Illustrator 18.0.0, SVG Export Plug-In . SVG Version: 6.00 Build 0)  -->
<!DOCTYPE svg PUBLIC "-//W3C//DTD SVG 1.1//EN" "http://www.w3.org/Graphics/SVG/1.1/DTD/svg11.dtd">
<svg version="1.1" id="Layer_1" xmlns="http://www.w3.org/2000/svg" xmlns:xlink="http://www.w3.org/1999/xlink" x="0px" y="0px"
	 viewBox="0 0 600 600" enable-background="new 0 0 600 600" xml:space="preserve">
<path fill="#F8EB4A" stroke="#000000" stroke-width="0.1918" d="M468.8,189.2c35.3,92-24.5,219.4-164.2,227.1
	c-148.8,7.7-204-124.3-151.9-227.1c1.5-4.6,16.9-26.1,21.5-32.2c38.4-43,95.1-67.5,147.3-66c46,1.5,90.5,21.5,121.2,55.2
	C455,158.5,462.6,173.8,468.8,189.2z"/>
<path fill="#FFFFFF" stroke="#000000" stroke-width="0.1918" stroke-miterlimit="10" d="M424.3,127.8
	c-27.6,16.9-254.7,35.3-254.7,35.3l-9.2,13.8c75.2,12.3,282.3-30.7,282.3-30.7L424.3,127.8z"/>
<path d="M234,212.2c0,6.1,3.1,12.3,7.7,12.3c6.1,0,15.3-6.1,18.4-18.4c3.1-13.8-4.6-19.9-13.8-13.8C238.6,195.3,234,204.5,234,212.2
	z"/>
<path d="M301.5,209.1c0,6.1,3.1,12.3,7.7,12.3c6.1,0,15.3-6.1,18.4-18.4c3.1-13.8-4.6-19.9-13.8-13.8
	C307.7,192.3,301.5,201.5,301.5,209.1z"/>
<path stroke="#000000" stroke-width="0.1918" stroke-miterlimit="10" d="M227.9,262.8c0,0,16.9,50.6,53.7,43c35.3-7.7,43-46,43-46
	s36.8,108.9-33.8,118.1C220.2,390.2,227.9,262.8,227.9,262.8z"/>
<path fill="#00AEFF" stroke="#000000" stroke-width="0.1918" stroke-miterlimit="10" d="M231,407l-36.8,36.8
	c-13.8-12.3-73.6,0-73.6,0s-15.3,4.6-13.8,15.3c1.5,10.7,82.8,44.5,84.4,35.3c1.5-9.2,73.6-70.6,73.6-70.6l10.5-8L231,407z"/>
<ellipse fill="none" stroke="#000000" stroke-width="0.1918" stroke-miterlimit="10" cx="163.5" cy="499.1" rx="9.2" ry="7.7"/>
<ellipse fill="none" stroke="#000000" stroke-width="0.1918" stroke-miterlimit="10" cx="146.6" cy="491.4" rx="9.2" ry="7.7"/>
<ellipse fill="none" stroke="#000000" stroke-width="0.1918" stroke-miterlimit="10" cx="129.7" cy="483.7" rx="9.2" ry="7.7"/>
<ellipse fill="none" stroke="#000000" stroke-width="0.1918" stroke-miterlimit="10" cx="114.4" cy="474.5" rx="9.2" ry="7.7"/>
<ellipse transform="matrix(-0.9954 9.564839e-02 -9.564839e-02 -0.9954 842.3966 920.6318)" fill="none" stroke="#000000" stroke-width="0.1918" stroke-miterlimit="10" cx="399.1" cy="480.5" rx="7.7" ry="9.2"/>
<ellipse transform="matrix(-0.9954 9.564839e-02 -9.564839e-02 -0.9954 831.7838 954.4132)" fill="none" stroke="#000000" stroke-width="0.1918" stroke-miterlimit="10" cx="393" cy="497.1" rx="7.7" ry="9.2"/>
<ellipse transform="matrix(-0.9954 9.564839e-02 -9.564839e-02 -0.9954 824.11 991.5815)" fill="none" stroke="#000000" stroke-width="0.1918" stroke-miterlimit="10" cx="388.3" cy="515.5" rx="7.7" ry="9.2"/>
<ellipse transform="matrix(-0.9954 9.564839e-02 -9.564839e-02 -0.9954 810.09 1023.3584)" fill="none" stroke="#000000" stroke-width="0.1918" stroke-miterlimit="10" cx="380.5" cy="531.1" rx="7.7" ry="9.2"/>
<path fill="#00AEFF" stroke="#000000" stroke-width="0.1918" stroke-miterlimit="10" d="M369,457.7l-18.4,16.9
	c-38.4-3.1-35.3-59.1-35.3-59.1l0.1,14.6c29.1-7.7,29.1-7.7,29.1-7.7v-12.3C344.5,408.6,338.4,440.8,369,457.7
	c6.1,3.1,13.8,6.1,24.5,7.7c0,0-12.3,75.2-33.8,67.5s-10.7-55.2-10.7-55.2l1.5-3.1"/>
<path fill="#FFFFFF" stroke="#000000" stroke-width="0.1918" stroke-miterlimit="10" d="M209.5,428.5c0,0,27.6,4.6,32.2,13.8
	l9.2-6.1c-4.6-12.3-32.2-15.3-32.2-15.3L209.5,428.5z"/>
<path d="M166.5,439.3c0,0-3.1,21.5,1.5,23c6.1,1.5,6.1-23,6.1-23H166.5z"/>
<path d="M155.8,439.3c0,0-3.1,18.4,1.5,19.9c4.6,1.5,6.1-19.9,6.1-19.9H155.8z"/>
<path d="M142,440.8c0,0-3.1,15.3,3.1,16.9c6.1,1.5,4.6-16.9,4.6-16.9H142z"/>
<path d="M348.9,477.9c-0.3,1.1-0.7,2.2-0.9,3.3c-0.2,0.8-0.3,1.5-0.4,2.3v3.3c0,0,21.5,6.1,23,0
	C373.2,482.8,354.2,478.9,348.9,477.9z"/>
<path fill="#F8EB4A" stroke="#000000" stroke-width="0.1918" stroke-miterlimit="10" d="M132.8,256.7c0,0-46,3.1-52.2-3.1
	c-6.1-6.1-19.9,6.1-19.9,6.1S43.8,285.8,30,276.6c-13.8-9.2,9.2-18.4,9.2-18.4s-23,13.8-27.6,0c-4.6-13.8,26.1-12.3,26.1-12.3
	s-24.5,3.1-23-9.2c1.5-12.3,33.8-3.1,33.8-3.1s-24.5-29.1-4.6-36.8c19.9-9.2,18.4,24.5,27.6,30.7c9.2,6.1,66,6.1,66,6.1L132.8,256.7
	z"/>
<path d="M346.9,490c-0.1,2.5-0.4,5.1-0.6,7.6c2.1,0.5,18.3,4.2,19.7-0.1C367.3,493.5,350.8,490.6,346.9,490z"/>
<path d="M346.2,503.7c0.1,2.6,0.3,5.2,0.4,7.8c2.9,0.5,14.9,2.4,16.2-1.7C364.3,504.1,348.3,503.7,346.2,503.7z"/>
<path fill="#F8EB4A" stroke="#000000" stroke-width="0.1918" stroke-miterlimit="10" d="M479.5,262.8c13.8-1.5,49.1-23,49.1-23
	s16.9-1.5,29.1-4.6c12.3-1.5,32.2-10.7,30.7-19.9s-43,7.7-33.8,6.1c9.2-1.5,26.1-16.9,21.5-23c-4.6-6.1-27.6,12.3-27.6,12.3
	s23-19.9,13.8-29.1c-10.7-9.2-26.1,16.9-26.1,16.9s1.5-18.4-10.7-18.4c-12.3,0-10.7,30.7-9.2,35.3c0,4.6-36.8,19.9-36.8,19.9
	L479.5,262.8L479.5,262.8z"/>
<path fill="#FFFFFF" stroke="#000000" stroke-width="0.1918" stroke-miterlimit="10" d="M217.2,465.3c-3.1-10.7-23-21.5-23-21.5
	l10.7-10.7c0,0,23,3.1,30.7,15.3L217.2,465.3z"/>
<path fill="#FFFFFF" stroke="#000000" stroke-width="4.794727e-02" stroke-miterlimit="10" d="M80.6,230.6c0,0-1.5,12.3,0,21.5
	c1.5,9.2,24.5,4.6,24.5,4.6s3.1-23,0-23C102.1,233.7,80.6,230.6,80.6,230.6z"/>
<path fill="#FFFFFF" stroke="#000000" stroke-width="4.794727e-02" stroke-miterlimit="10" d="M496.4,227.5c0,0,4.6,27.6,7.7,26.1
	c3.1-1.5,16.9-9.2,16.9-9.2s-7.7-24.5-12.3-23C505.6,222.9,496.4,227.5,496.4,227.5z"/>
<path fill="#F8EB4A" stroke="#000000" stroke-width="0.1918" stroke-miterlimit="10" d="M273.2,474.5l13.8-13.8l39.9,9.2l-19.9,18.4
	C306.9,489.8,296.2,476,273.2,474.5z"/>
<path fill="#FFFFFF" d="M369,457.7"/>
<path fill="#FFFFFF" stroke="#000000" stroke-width="0.1438" stroke-miterlimit="10" d="M395.2,430c-12.3,0-27.6,10.7-27.6,10.7
	L366,430l29.1-10.7V430z"/>
<path fill="#FFFFFF" stroke="#000000" stroke-width="0.1918" stroke-miterlimit="10" d="M284.7,466.9l18.4-16.9
	c0,0-13-13.1-16.9-13.8S258.7,450,258.7,450S267.9,465.4,284.7,466.9z"/>
<path fill="#F8EB4A" stroke="#272425" stroke-width="0.1438" d="M273.8,458.5l30.7-6.1l-1.5,12.3l-29.1,7.7
	C273.8,472.3,272.3,464.6,273.8,458.5z"/>
</svg>
