<?xml version="1.0" encoding="utf-8"?>
<!-- Generator: Adobe Illustrator 18.0.0, SVG Export Plug-In . SVG Version: 6.00 Build 0)  -->
<!DOCTYPE svg PUBLIC "-//W3C//DTD SVG 1.1//EN" "http://www.w3.org/Graphics/SVG/1.1/DTD/svg11.dtd">
<svg version="1.1" id="Layer_1" xmlns="http://www.w3.org/2000/svg" xmlns:xlink="http://www.w3.org/1999/xlink" x="0px" y="0px"
	 viewBox="0 0 361.4 281.2" enable-background="new 0 0 361.4 281.2" xml:space="preserve">
<g id="mr_90s">
	<path fill="#F8EB4A" stroke="#000000" stroke-width="0.1891" d="M287.2,61.8C309.4,120,271.5,199.6,184,204.2
		C90.5,209.1,55.7,125.9,89,62c1.4-2.7,10.5-16.5,13.9-20.4C126.5,14.2,162.5-0.7,195,0c28.4,0.6,57,13.2,76,34.9
		C277.7,42.7,283.3,51.7,287.2,61.8z"/>
	<path fill="#FFFFFF" stroke="#000000" stroke-width="0.1891" stroke-miterlimit="10" d="M259.1,23.5c-17.4,10.9-159.6,22-159.6,22
		l-5.9,9.1c47.3,7.9,177.3-19.7,177.3-19.7L259.1,23.5z"/>
	<path d="M139.6,76c-0.3,4.1,1.5,7.3,4.7,7.6c4.1,0.3,9.6-4.3,11.5-11.3c2.2-8.4-2.5-12.6-8.5-9.1C142.9,65.7,139.9,71.4,139.6,76z"
		/>
	<path d="M182.1,74.2c-0.3,4.1,1.5,7.3,4.7,7.6c4.1,0.3,9.6-4.3,11.5-11.3c2.2-8.4-2.5-12.6-8.5-9.1
		C185.4,63.9,182.4,69.6,182.1,74.2z"/>
	<path stroke="#000000" stroke-width="0.1891" stroke-miterlimit="10" d="M135.8,108.1c0,0,10.6,31.4,33.2,26.7s26.7-28.4,26.7-28.4
		s23.5,68.1-20.8,74.5C130.7,187.4,135.8,108.1,135.8,108.1z"/>
	<path fill="#00AEFF" stroke="#000000" stroke-width="0.1891" stroke-miterlimit="10" d="M137.4,198.3l-22.8,23.2
		c-8.8-7.4-46.1-0.5-46.1-0.5s-9.2,3.2-8.7,9.7s51.6,27.7,52.5,22.1c0.9-5.5,46.6-44.3,46.6-44.3l3.7-4.2L137.4,198.3z"/>
	<ellipse fill="none" stroke="#000000" stroke-width="0.1891" stroke-miterlimit="10" cx="95.2" cy="255.5" rx="5.4" ry="4.5"/>
	<ellipse fill="none" stroke="#000000" stroke-width="0.1891" stroke-miterlimit="10" cx="84.6" cy="251" rx="5.4" ry="4.5"/>
	<ellipse fill="none" stroke="#000000" stroke-width="0.1891" stroke-miterlimit="10" cx="73.8" cy="246.6" rx="5.4" ry="4.5"/>
	<ellipse fill="none" stroke="#000000" stroke-width="0.1891" stroke-miterlimit="10" cx="64.6" cy="240.9" rx="5.4" ry="4.5"/>
	
		<ellipse transform="matrix(-9.564685e-02 -0.9954 0.9954 -9.564685e-02 23.0984 509.1171)" fill="none" stroke="#000000" stroke-width="0.1891" stroke-miterlimit="10" cx="242.8" cy="244.1" rx="5.4" ry="4.5"/>
	
		<ellipse transform="matrix(-9.564685e-02 -0.9954 0.9954 -9.564685e-02 8.4553 517.6885)" fill="none" stroke="#000000" stroke-width="0.1891" stroke-miterlimit="10" cx="239.4" cy="255" rx="5.4" ry="4.5"/>
	
		<ellipse transform="matrix(-9.564685e-02 -0.9954 0.9954 -9.564685e-02 -6.3667 526.4995)" fill="none" stroke="#000000" stroke-width="0.1891" stroke-miterlimit="10" cx="236" cy="266.1" rx="5.4" ry="4.5"/>
	
		<ellipse transform="matrix(-9.564685e-02 -0.9954 0.9954 -9.564685e-02 -21.274 532.3828)" fill="none" stroke="#000000" stroke-width="0.1891" stroke-miterlimit="10" cx="231.2" cy="275.9" rx="5.4" ry="4.5"/>
	<path fill="#00AEFF" stroke="#000000" stroke-width="0.1891" stroke-miterlimit="10" d="M190.7,212.5l-0.3-8.1
		C190.5,204.4,190.3,207.8,190.7,212.5z"/>
	<path fill="#00AEFF" stroke="#000000" stroke-width="0.1891" stroke-miterlimit="10" d="M224,229.9c-11.6-6.3-14.5-15.9-15-22.4
		l0,0c0,0,0,0-18.2,5.1c0.6,5.8,2.2,13.5,6.6,19.4c0.1,0.1,0.2,0.2,0.3,0.4c0.4,0.2,0.7,0.5,1,0.8c0.9,1,1.8,2,2.9,2.9
		c1.9,1.6,4.2,2.4,6.4,3.5c1.4,0.4,2.8,0.7,4.4,0.9l-0.6,1.7c0,0-7,30.1,6.5,35s20.9-42.3,20.9-42.3
		C232.9,233.8,227.9,232,224,229.9z"/>
	<path fill="#00AEFF" stroke="#000000" stroke-width="0.1891" stroke-miterlimit="10" d="M209,207.5l0.3-6.9
		C209.3,200.5,208.7,203.4,209,207.5z"/>
	<path fill="#FFFFFF" stroke="#000000" stroke-width="0.1891" stroke-miterlimit="10" d="M124.1,212.2c0,0,17,2.5,20.5,8.3l5.4-3.8
		c-2.7-7.9-20.7-9.7-20.7-9.7L124.1,212.2z"/>
	<path d="M97.7,218.1c0,0-2.1,13.5,1.4,14.7s3.9-14.7,3.9-14.7H97.7z"/>
	<path d="M90.4,218.1c0,0-2,11.6,1.3,12.6c3.3,1,3.7-12.6,3.7-12.6H90.4z"/>
	<path d="M87.1,218.3c-1,0.2-2,0.3-3,0.4c-0.1,0-0.2,0.1-0.3,0.1c0,0-0.1,0-0.1,0c-0.6,0.1-1.1,0.1-1.7,0.1
		c-0.3,2.1-0.9,9.4,2.1,9.9c3.2,0.6,3.4-8.8,3.4-10.5C87.4,218.3,87.3,218.3,87.1,218.3C87.1,218.3,87.1,218.3,87.1,218.3z"/>
	<path d="M210.7,248.1c0,0,13.2,3.7,14.8,0.4c1.6-3.3-14.1-5.7-14.1-5.7L210.7,248.1z"/>
	<path fill="#F8EB4A" stroke="#000000" stroke-width="0.1891" stroke-miterlimit="10" d="M76.6,103.7c0,0-28.9,2.1-33.1-1.5
		c-4.2-3.5-12.9,3.9-12.9,3.9S19.8,122.6,11,116.3s6.2-11.7,6.2-11.7s-14.8,8.5-17.1,0s16.6-7.9,16.6-7.9S1.3,98.4,2,91
		s20.8-2,20.8-2S8.3,71.4,20.5,66.1s11.3,15.7,17.3,19.4c6,3.7,41.4,3.5,41.4,3.5L76.6,103.7z"/>
	<path d="M209.8,255.4c0,0,11.3,3.4,12.6,0.2s-12-5.2-12-5.2L209.8,255.4z"/>
	<path d="M210.1,264c0,0,9.7,2.2,10.6-1.3c0.9-3.5-10.5-4.1-10.5-4.1L210.1,264z"/>
	<path fill="#F8EB4A" stroke="#000000" stroke-width="0.1891" stroke-miterlimit="10" d="M293.4,108.1c8.2-0.8,31-14.8,31-14.8
		s10.1-1.4,18-2.8c7.8-1.4,20.3-6.5,18.9-12.6s-26.3,5.2-20.8,3.9c5.5-1.4,16.6-10.2,13.4-14.2c-3.2-4-17.5,7.7-17.5,7.7
		s14.8-12.5,8.3-18.1c-6.5-5.6-16.1,10.3-16.1,10.3s0.9-11.6-6.5-11.6s-6.5,19.3-6,22.1c0.5,2.8-22.7,12.4-22.7,12.4V108.1z"/>
	<path fill="#FFFFFF" stroke="#000000" stroke-width="0.1891" stroke-miterlimit="10" d="M129.2,234.8c-1.5-7-14.6-13.3-14.6-13.3
		l6.5-6.6c0,0,14.4,2.4,19.4,9.7L129.2,234.8z"/>
	<path fill="#FFFFFF" stroke="#000000" stroke-width="4.727954e-02" stroke-miterlimit="10" d="M43.5,87.3c0,0-1.4,7.6,0,13.2
		c1.4,5.6,15,2.8,15,2.8s2.3-14.7,0-14.8C56.3,88.5,43.5,87.3,43.5,87.3z"/>
	<path fill="#FFFFFF" stroke="#000000" stroke-width="4.727954e-02" stroke-miterlimit="10" d="M303.9,85.9c0,0,2.5,17.5,4.7,16.3
		c2.2-1.1,10.6-5.8,10.6-5.8s-5.2-15.8-7.3-14.6C309.6,83,303.9,85.9,303.9,85.9z"/>
	<path fill="#F8EB4A" stroke="#000000" stroke-width="0.1891" stroke-miterlimit="10" d="M129.2,206.6l8.2-8.3l25.1,6.1l-12.7,11.9
		C149.9,216.3,143.1,207.8,129.2,206.6z"/>
	<path fill="#FFFFFF" d="M224,229.9"/>
	<path fill="#FFFFFF" stroke="#000000" stroke-width="0.1418" stroke-miterlimit="10" d="M191.8,220.2c3.6-2.1,11.3-6.4,18.3-7.6
		c-0.5-2-0.8-3.9-0.9-6l-18.7,7.4C190.6,216.1,191.1,218.1,191.8,220.2z"/>
	<path fill="#FFFFFF" stroke="#000000" stroke-width="0.1891" stroke-miterlimit="10" d="M213.7,221c-0.2-0.4-0.5-0.6-0.8-0.8
		c-2.7,1.6-5.3,3.8-8,5.4c-2.8,1.7-5.6,3.5-8.5,5c1.7,2.2,7.6,9,15.9,9.8l11.6-10.5C224,229.9,215,223,213.7,221z"/>
	<path fill="#F8EB4A" stroke="#272425" stroke-width="0.1418" d="M200.8,202.3c-2.8,0.4-5.7,0.9-8.5,1.1c-0.8,0.1-1.6,0.2-2.4,0.3
		c-0.7,3.9,0.3,10.1,0.3,10.1l18.5-6.7l0.4-6.8C206.6,201.5,203.7,201.8,200.8,202.3z"/>
</g>
</svg>
