<?xml version="1.0" encoding="utf-8"?>
<!-- Generator: Adobe Illustrator 18.0.0, SVG Export Plug-In . SVG Version: 6.00 Build 0)  -->
<!DOCTYPE svg PUBLIC "-//W3C//DTD SVG 1.1//EN" "http://www.w3.org/Graphics/SVG/1.1/DTD/svg11.dtd">
<svg version="1.1" id="Layer_1" xmlns="http://www.w3.org/2000/svg" xmlns:xlink="http://www.w3.org/1999/xlink" x="0px" y="0px"
	 viewBox="0 0 800 600" enable-background="new 0 0 800 600" xml:space="preserve">
<g id="g3415">
	<rect id="rect3249" x="369.8" y="49.2" fill="#FFE600" width="57.9" height="19.1"/>
	<path fill="#FFE600" d="M463.5,88.5L463.5,88.5l0-0.8c-5.4-17.4-20.1-19.3-36-19.4h-11.1h-1.2h-33.5h-0.2h-12.4
		c-15.1,0.3-28.2,3.4-32.9,18.3V90H336v63.7h0.1v2c4.8,14.9,17.8,18,32.9,18.3h12.4h0.2h34.7c0.1-0.2,0.2-0.3,0.3-0.5h10.9
		c15.8-0.1,30.5-1.9,36-18.3v-0.5h0L463.5,88.5L463.5,88.5z"/>
	<rect id="rect3253" x="360.8" y="172" fill="#FFE600" width="78" height="15.6"/>
</g>
<g>
	<circle fill="#3B3939" cx="378" cy="110.7" r="8.5"/>
	<circle fill="#3B3939" cx="422" cy="110.7" r="8.5"/>
	<path fill="#3B3939" d="M417.8,137.3c-2.9,1.4-5.8,2.6-8.8,3.5c-3,0.9-6.1,1.4-9.5,1.4c-2.5,0-5.2-0.3-8.2-1
		c-2.9-0.7-6.1-1.8-9.7-3.5c-1.2-0.6-2.7,0-3.3,1.2s0,2.7,1.2,3.3c3.8,1.8,7.3,3,10.6,3.8c3.3,0.8,6.4,1.1,9.3,1.1
		c4,0,7.6-0.6,11-1.6c3.4-1,6.5-2.3,9.5-3.7c1.2-0.6,1.8-2.1,1.2-3.3C420.6,137.3,419.1,136.7,417.8,137.3z"/>
</g>
<linearGradient id="SVGID_1_" gradientUnits="userSpaceOnUse" x1="395.6078" y1="599.283" x2="395.6078" y2="393.807" gradientTransform="matrix(1 0 0 1 4 -45)">
	<stop  offset="0" style="stop-color:#446DB5"/>
	<stop  offset="0.6061" style="stop-color:#446DB5"/>
	<stop  offset="0.7636" style="stop-color:#628DAD"/>
	<stop  offset="0.903" style="stop-color:#6795B6"/>
</linearGradient>
<path fill="url(#SVGID_1_)" d="M465.1,348.8h-61.4H301.1v66.8v15.5v74.1v1.6v47.6h94.5v-47.6v-1.6v-71.4c1.2,0.4,2.5,0.6,3.8,0.6
	c1.5,0,2.9-0.3,4.3-0.7v71.5v1.6v47.6h94.5v-47.6v-1.6v-74.1v-21.7v-60.5H465.1L465.1,348.8z"/>
<g>
	<path fill="#426DB5" d="M546.4,327.7l-9.5-55.6l-29.3-57.8c0,0-13.7-21.2-36.5-16.8L499,334L546.4,327.7z"/>
	<path fill="#ED1F24" d="M502.1,348.8l-31-151.4c0-6.2-5.5-11.2-12.7-11.9l0-0.1l-0.1,0.1c-0.5,0-1-0.1-1.5-0.1H343
		c-0.2,0-0.5,0-0.7,0l0,0l0,0c-7.5,0.3-13.5,5.6-13.5,12l-30,151.4L502.1,348.8L502.1,348.8z"/>
	<g id="cuffs_1_">
		<g>
			<path fill="#32558E" d="M546.4,327.4c-0.6-4.1-11.7-6.1-24.9-4.4c-13.1,1.7-23.3,6.3-22.7,10.4c0.6,4.1,11.7,6,24.9,4.4
				C536.8,336.2,547,331.5,546.4,327.4z"/>
		</g>
	</g>
	<g id="arm_2_">
		<g>
			<path fill="#FFE600" d="M540.2,326.8c0,0-18.1-6.2-34.8,4.8l2.4,25.2l36.2-5.3L540.2,326.8z"/>
		</g>
	</g>
	<g>
		<path fill="#FFE600" d="M526.5,342.5c-17.7,2.4-30.1,18.7-27.7,36.4c1.3,9.8,6.9,18,14.7,22.9c0.4,0,4.1,0.9,6-0.3
			c5.9-3.5-1-12.2-3.7-19.5c-1.1-1.9-1.9-4-2.2-6.4c-1.3-9.3,5.2-17.8,14.5-19.1c0.1,0,0.3,0,0.4,0c0.1,0,0.3,0,0.4-0.1
			c9.3-1.3,17.8,5.2,19.1,14.5c0.3,2.3,0.1,4.6-0.4,6.7c-0.7,7.8-5,18,1.7,19.8c2.1,0.6,5.4-1.2,5.8-1.3c6.1-6.8,9.3-16.2,8-26
			C560.5,352.5,544.2,340.1,526.5,342.5z"/>
	</g>
	<path fill="#426DB5" d="M301,334.5l27.9-136.6c-22.8-4.4-36.5,16.8-36.5,16.8l-29.3,57.8l-9.5,55.6L301,334.5z"/>
	<g id="cuffs_2_">
		<g>
			<path fill="#32558E" d="M278.5,323.5c-13.1-1.7-24.3,0.3-24.9,4.4c-0.6,4.1,9.6,8.8,22.7,10.4c13.1,1.7,24.3-0.3,24.9-4.4
				C301.8,329.9,291.6,325.2,278.5,323.5z"/>
		</g>
	</g>
	<g id="arm_3_">
		<g>
			<path fill="#FFE600" d="M259.8,327.3L256,352l36.2,5.3l2.4-25.2C277.9,321.1,259.8,327.3,259.8,327.3z"/>
		</g>
	</g>
	<g>
		<path fill="#FFE600" d="M273.5,343c17.7,2.4,30.1,18.7,27.7,36.4c-1.3,9.8-6.9,18-14.7,22.9c-0.4,0-4.1,0.9-6-0.3
			c-5.9-3.5,1-12.2,3.7-19.5c1.1-1.9,1.9-4,2.2-6.4c1.3-9.3-5.2-17.8-14.5-19.1c-0.1,0-0.3,0-0.4,0c-0.1,0-0.3,0-0.4-0.1
			c-9.3-1.3-17.8,5.2-19.1,14.5c-0.3,2.3-0.1,4.6,0.4,6.7c0.7,7.8,5,18-1.7,19.8c-2.1,0.6-5.4-1.2-5.8-1.3c-6.1-6.8-9.3-16.2-8-26
			C239.5,353,255.8,340.6,273.5,343z"/>
	</g>
</g>
<g>
	<path fill="#32558E" d="M302.4,286.5l-29.8-9c-0.8-0.2-1.6,0.2-1.9,1s0.2,1.6,1,1.9l29.8,9c0.8,0.2,1.6-0.2,1.9-1
		C303.6,287.5,303.2,286.7,302.4,286.5"/>
</g>
<g>
	<path fill="#32558E" d="M526.8,274.7l-27.5,14.7c-0.7,0.4-1,1.3-0.6,2c0.4,0.7,1.3,1,2,0.6l27.5-14.7c0.7-0.4,1-1.3,0.6-2
		S527.5,274.3,526.8,274.7"/>
</g>
<rect x="300.8" y="524.2" fill="#32558E" width="95.6" height="6.6"/>
<rect x="404.6" y="524.2" fill="#32558E" width="95.6" height="6.6"/>
<linearGradient id="SVGID_2_" gradientUnits="userSpaceOnUse" x1="344.5085" y1="474.098" x2="344.5085" y2="506.616" gradientTransform="matrix(1 0 0 1 4 -45)">
	<stop  offset="0" style="stop-color:#000000;stop-opacity:0.57"/>
	<stop  offset="1" style="stop-color:#000000;stop-opacity:0"/>
</linearGradient>
<rect x="300.6" y="429.1" fill="url(#SVGID_2_)" width="95.8" height="32.5"/>
<linearGradient id="SVGID_3_" gradientUnits="userSpaceOnUse" x1="448.3195" y1="474.098" x2="448.3195" y2="506.616" gradientTransform="matrix(1 0 0 1 4 -45)">
	<stop  offset="0" style="stop-color:#000000;stop-opacity:0.57"/>
	<stop  offset="1" style="stop-color:#000000;stop-opacity:0"/>
</linearGradient>
<rect x="404.4" y="429.1" fill="url(#SVGID_3_)" width="95.8" height="32.5"/>
<path fill="#32558E" d="M489.9,348.8H309.6h-8.8v26.3h8.8h79.5v61.3c0,5.9,4.8,10.7,10.7,10.7c5.9,0,10.7-4.8,10.7-10.7v-61.3h79.5
	h8.7v-26.3H489.9z"/>
<linearGradient id="SVGID_4_" gradientUnits="userSpaceOnUse" x1="707.4226" y1="414.5389" x2="707.4226" y2="447.0559" gradientTransform="matrix(-1 0 0 -1 1159.8281 938.7109)">
	<stop  offset="0" style="stop-color:#FFFFFF;stop-opacity:0.57"/>
	<stop  offset="8.989999e-02" style="stop-color:#E0E1E2;stop-opacity:0.5187"/>
	<stop  offset="0.2821" style="stop-color:#A9ABAD;stop-opacity:0.4092"/>
	<stop  offset="0.4649" style="stop-color:#7F8083;stop-opacity:0.305"/>
	<stop  offset="0.6331" style="stop-color:#5D5E60;stop-opacity:0.2091"/>
	<stop  offset="0.7835" style="stop-color:#414042;stop-opacity:0.1234"/>
	<stop  offset="0.9109" style="stop-color:#19191A;stop-opacity:5.080000e-02"/>
	<stop  offset="1" style="stop-color:#000000;stop-opacity:0"/>
</linearGradient>
<rect x="404.6" y="491.7" opacity="0.45" fill="url(#SVGID_4_)" enable-background="new    " width="95.6" height="32.5"/>
<linearGradient id="SVGID_5_" gradientUnits="userSpaceOnUse" x1="811.2336" y1="414.5389" x2="811.2336" y2="447.0559" gradientTransform="matrix(-1 0 0 -1 1159.8281 938.7109)">
	<stop  offset="0" style="stop-color:#FFFFFF;stop-opacity:0.57"/>
	<stop  offset="8.989999e-02" style="stop-color:#E0E1E2;stop-opacity:0.5187"/>
	<stop  offset="0.2821" style="stop-color:#A9ABAD;stop-opacity:0.4092"/>
	<stop  offset="0.4649" style="stop-color:#7F8083;stop-opacity:0.305"/>
	<stop  offset="0.6331" style="stop-color:#5D5E60;stop-opacity:0.2091"/>
	<stop  offset="0.7835" style="stop-color:#414042;stop-opacity:0.1234"/>
	<stop  offset="0.9109" style="stop-color:#19191A;stop-opacity:5.080000e-02"/>
	<stop  offset="1" style="stop-color:#000000;stop-opacity:0"/>
</linearGradient>
<rect x="300.8" y="491.7" opacity="0.45" fill="url(#SVGID_5_)" enable-background="new    " width="95.6" height="32.5"/>
<g>
	<path d="M341.2,626.7l0.8,3c0.2,0.6,0.3,1.2,0.4,1.8h0c0.1-0.6,0.3-1.2,0.5-1.8l0.9-3h0.9l0.9,2.9c0.2,0.7,0.4,1.3,0.5,1.9h0
		c0.1-0.6,0.3-1.2,0.4-1.9l0.8-2.9h1l-1.9,5.8h-1l-0.9-2.8c-0.2-0.6-0.4-1.2-0.5-1.9h0c-0.1,0.7-0.3,1.3-0.5,1.9l-0.9,2.8h-1
		l-1.8-5.8H341.2z"/>
	<path d="M350.1,626.7l0.8,3c0.2,0.6,0.3,1.2,0.4,1.8h0c0.1-0.6,0.3-1.2,0.5-1.8l0.9-3h0.9l0.9,2.9c0.2,0.7,0.4,1.3,0.5,1.9h0
		c0.1-0.6,0.3-1.2,0.4-1.9l0.8-2.9h1l-1.9,5.8h-1l-0.9-2.8c-0.2-0.6-0.4-1.2-0.5-1.9h0c-0.1,0.7-0.3,1.3-0.5,1.9l-0.9,2.8h-1
		l-1.8-5.8H350.1z"/>
	<path d="M359.1,626.7l0.8,3c0.2,0.6,0.3,1.2,0.4,1.8h0c0.1-0.6,0.3-1.2,0.5-1.8l0.9-3h0.9l0.9,2.9c0.2,0.7,0.4,1.3,0.5,1.9h0
		c0.1-0.6,0.3-1.2,0.4-1.9l0.8-2.9h1l-1.9,5.8h-1l-0.9-2.8c-0.2-0.6-0.4-1.2-0.5-1.9h0c-0.1,0.7-0.3,1.3-0.5,1.9l-0.9,2.8h-1
		l-1.8-5.8H359.1z"/>
	<path d="M366.8,631.9c0-0.4,0.3-0.8,0.7-0.8c0.4,0,0.7,0.3,0.7,0.8c0,0.4-0.3,0.8-0.7,0.8C367.1,632.6,366.8,632.3,366.8,631.9z"/>
	<path d="M372.8,632.5l-0.1-0.7h0c-0.3,0.5-0.9,0.9-1.8,0.9c-1.2,0-1.8-0.8-1.8-1.7c0-1.4,1.2-2.2,3.5-2.2v-0.1
		c0-0.5-0.1-1.3-1.3-1.3c-0.5,0-1.1,0.2-1.5,0.4l-0.2-0.7c0.5-0.3,1.2-0.5,1.9-0.5c1.8,0,2.2,1.2,2.2,2.4v2.2c0,0.5,0,1,0.1,1.4
		L372.8,632.5L372.8,632.5z M372.6,629.5c-1.2,0-2.5,0.2-2.5,1.3c0,0.7,0.5,1,1,1c0.8,0,1.2-0.5,1.4-1c0-0.1,0.1-0.2,0.1-0.3V629.5z
		"/>
	<path d="M375.3,624h1.1v8.5h-1.1V624z"/>
	<path d="M378.2,624h1.1v8.5h-1.1V624z"/>
	<path d="M384.2,632.5l-0.1-0.7h0c-0.3,0.5-0.9,0.9-1.8,0.9c-1.2,0-1.8-0.8-1.8-1.7c0-1.4,1.2-2.2,3.5-2.2v-0.1
		c0-0.5-0.1-1.3-1.3-1.3c-0.5,0-1.1,0.2-1.5,0.4l-0.2-0.7c0.5-0.3,1.2-0.5,1.9-0.5c1.8,0,2.2,1.2,2.2,2.4v2.2c0,0.5,0,1,0.1,1.4
		L384.2,632.5L384.2,632.5z M384.1,629.5c-1.2,0-2.5,0.2-2.5,1.3c0,0.7,0.5,1,1,1c0.8,0,1.2-0.5,1.4-1c0-0.1,0.1-0.2,0.1-0.3V629.5z
		"/>
	<path d="M386.8,628.3c0-0.6,0-1.1,0-1.6h0.9l0.1,1h0c0.3-0.6,1-1.1,1.9-1.1c0.8,0,2.1,0.5,2.1,2.5v3.5h-1.1v-3.3
		c0-0.9-0.3-1.7-1.3-1.7c-0.7,0-1.2,0.5-1.4,1.1c0,0.1-0.1,0.3-0.1,0.5v3.5h-1.1L386.8,628.3L386.8,628.3z"/>
	<path d="M393.4,628.3c0-0.6,0-1.1,0-1.6h0.9l0,0.9h0c0.3-0.6,0.9-1.1,1.8-1.1c0.8,0,1.4,0.5,1.6,1.2h0c0.2-0.3,0.4-0.6,0.6-0.8
		c0.3-0.3,0.7-0.4,1.3-0.4c0.8,0,1.9,0.5,1.9,2.5v3.4h-1v-3.3c0-1.1-0.4-1.8-1.3-1.8c-0.6,0-1.1,0.4-1.2,1c0,0.1-0.1,0.3-0.1,0.5
		v3.6h-1V629c0-0.9-0.4-1.6-1.2-1.6c-0.7,0-1.1,0.5-1.3,1.1c-0.1,0.2-0.1,0.3-0.1,0.5v3.5h-1L393.4,628.3L393.4,628.3z"/>
	<path d="M407.6,632.3c-0.3,0.1-0.9,0.3-1.7,0.3c-1.8,0-2.9-1.2-2.9-3c0-1.8,1.2-3.1,3.1-3.1c0.6,0,1.2,0.2,1.5,0.3l-0.2,0.8
		c-0.3-0.1-0.6-0.3-1.2-0.3c-1.3,0-2.1,1-2.1,2.2c0,1.3,0.9,2.2,2,2.2c0.6,0,1-0.2,1.3-0.3L407.6,632.3z"/>
	<path d="M412,632.5l-0.1-0.7h0c-0.3,0.5-0.9,0.9-1.8,0.9c-1.2,0-1.8-0.8-1.8-1.7c0-1.4,1.2-2.2,3.5-2.2v-0.1c0-0.5-0.1-1.3-1.3-1.3
		c-0.5,0-1.1,0.2-1.5,0.4l-0.2-0.7c0.5-0.3,1.2-0.5,1.9-0.5c1.8,0,2.2,1.2,2.2,2.4v2.2c0,0.5,0,1,0.1,1.4L412,632.5L412,632.5z
		 M411.9,629.5c-1.2,0-2.5,0.2-2.5,1.3c0,0.7,0.5,1,1,1c0.8,0,1.2-0.5,1.4-1c0-0.1,0.1-0.2,0.1-0.3V629.5z"/>
	<path d="M414.9,626.7l1.1,3.3c0.2,0.5,0.3,1,0.5,1.5h0c0.1-0.5,0.3-1,0.5-1.5l1.1-3.3h1.1l-2.3,5.8h-1l-2.2-5.8H414.9z"/>
	<path d="M425.4,629.5c0,2.1-1.5,3.1-2.9,3.1c-1.6,0-2.8-1.2-2.8-3c0-1.9,1.3-3.1,2.9-3.1C424.3,626.6,425.4,627.8,425.4,629.5z
		 M420.8,629.6c0,1.3,0.7,2.2,1.8,2.2c1,0,1.8-0.9,1.8-2.3c0-1-0.5-2.2-1.7-2.2C421.4,627.4,420.8,628.5,420.8,629.6z"/>
	<path d="M427.1,626.7l1.3,3.4c0.1,0.4,0.3,0.8,0.4,1.2h0c0.1-0.3,0.2-0.8,0.4-1.2l1.2-3.4h1.1l-1.6,4.1c-0.8,2-1.3,3-2,3.6
		c-0.5,0.5-1,0.6-1.3,0.7l-0.3-0.9c0.3-0.1,0.6-0.3,0.9-0.5c0.3-0.2,0.6-0.6,0.9-1.2c0-0.1,0.1-0.2,0.1-0.3c0-0.1,0-0.1-0.1-0.3
		l-2.1-5.3L427.1,626.7L427.1,626.7z"/>
	<path d="M431.6,631.9c0-0.4,0.3-0.8,0.7-0.8c0.4,0,0.7,0.3,0.7,0.8c0,0.4-0.3,0.8-0.7,0.8C431.9,632.6,431.6,632.3,431.6,631.9z"/>
	<path d="M438.5,632.3c-0.3,0.1-0.9,0.3-1.7,0.3c-1.8,0-2.9-1.2-2.9-3c0-1.8,1.2-3.1,3.1-3.1c0.6,0,1.2,0.2,1.5,0.3l-0.2,0.8
		c-0.3-0.1-0.6-0.3-1.2-0.3c-1.3,0-2.1,1-2.1,2.2c0,1.3,0.9,2.2,2,2.2c0.6,0,1-0.2,1.3-0.3L438.5,632.3z"/>
	<path d="M444.9,629.5c0,2.1-1.5,3.1-2.9,3.1c-1.6,0-2.8-1.2-2.8-3c0-1.9,1.3-3.1,2.9-3.1C443.8,626.6,444.9,627.8,444.9,629.5z
		 M440.3,629.6c0,1.3,0.7,2.2,1.8,2.2c1,0,1.8-0.9,1.8-2.3c0-1-0.5-2.2-1.7-2.2C440.8,627.4,440.3,628.5,440.3,629.6z"/>
	<path d="M445.7,631.9c0-0.4,0.3-0.8,0.7-0.8c0.4,0,0.7,0.3,0.7,0.8c0,0.4-0.3,0.8-0.7,0.8C446,632.6,445.7,632.3,445.7,631.9z"/>
	<path d="M453.3,630.9c0,0.6,0,1.1,0,1.6h-0.9l-0.1-0.9h0c-0.3,0.5-0.9,1.1-1.9,1.1c-0.9,0-2-0.5-2-2.5v-3.4h1.1v3.2
		c0,1.1,0.3,1.8,1.3,1.8c0.7,0,1.2-0.5,1.4-1c0.1-0.2,0.1-0.3,0.1-0.5v-3.6h1.1L453.3,630.9L453.3,630.9z"/>
	<path d="M456.1,629.4L456.1,629.4c0.2-0.2,0.4-0.5,0.5-0.7l1.7-2h1.3l-2.2,2.4l2.6,3.4h-1.3l-2-2.8l-0.5,0.6v2.2h-1V624h1
		L456.1,629.4L456.1,629.4z"/>
</g>
</svg>
