<?xml version="1.0" encoding="utf-8"?>
<!-- Generator: Adobe Illustrator 18.0.0, SVG Export Plug-In . SVG Version: 6.00 Build 0)  -->
<!DOCTYPE svg PUBLIC "-//W3C//DTD SVG 1.1//EN" "http://www.w3.org/Graphics/SVG/1.1/DTD/svg11.dtd">
<svg version="1.1" id="Layer_1" xmlns="http://www.w3.org/2000/svg" xmlns:xlink="http://www.w3.org/1999/xlink" x="0px" y="0px"
	 viewBox="0 0 480 640" enable-background="new 0 0 480 640" xml:space="preserve">
<rect x="-0.1" width="480.1" height="640"/>
<g>
	<path fill="#00FF00" d="M97.5,84.4h13.2c2.8,3.5,4.3,7.3,4.3,11.2c0,4.6-1.7,8.4-5,11.5c-3.3,3.1-7.4,4.6-12.3,4.6
		c-6.3,0-11.7-2.4-16.1-7.2c-4.4-4.8-6.6-10.7-6.6-17.6c0-6.9,2.2-12.7,6.8-17.3c4.5-4.6,10.1-6.9,16.9-6.9c2.3,0,4.9,0.5,7.7,1.4
		V78c-2.2-1-4.2-1.5-6-1.5c-3.3,0-5.9,1-8,3c-2.1,2-3.1,4.7-3.1,7.9c0,3.3,1,5.9,2.9,7.9c1.9,1.9,4.5,2.9,7.8,2.9
		c2.1,0,3.1-0.6,3.1-1.8c0-0.9-0.7-1.4-2.1-1.4h-3.3V84.4z"/>
	<path fill="#00FF00" d="M138.6,97.8V111c-1,0.2-2,0.3-2.9,0.3c-5.1,0-9.4-1.7-12.8-5.1c-3.4-3.4-5.1-7.6-5.1-12.7
		c0-4.9,1.7-9.1,5.2-12.6c3.5-3.4,7.7-5.2,12.6-5.2c5.5,0,9.9,1.6,13,4.8c3.2,3.2,4.8,7.6,4.8,13.2v16.7h-12.8V94.8
		c0-1.8-0.4-3.2-1.3-4.3c-0.9-1.1-2.1-1.6-3.5-1.6c-1.3,0-2.5,0.5-3.5,1.5c-1,1-1.5,2.1-1.5,3.5c0,1.4,0.4,2.6,1.3,3.5
		c0.9,0.9,2,1.4,3.4,1.4C136.6,98.7,137.6,98.4,138.6,97.8z"/>
	<path fill="#00FF00" d="M207.5,110.6h-12.8V92.2c0-1.4-0.1-2.4-0.4-2.9c-0.3-0.5-0.8-0.8-1.6-0.8c-1.4,0-2.2,1.3-2.2,3.8v18.4
		h-12.8V92.2c0-1.4-0.2-2.4-0.5-2.9s-0.8-0.8-1.6-0.8c-1.4,0-2.1,1.3-2.1,3.8v18.4h-12.8v-21c0-3.8,1.3-7.1,3.9-9.8
		c2.6-2.7,5.7-4,9.4-4c3.8,0,7.2,1.6,10.2,4.8c3.3-3.2,6.7-4.8,10-4.8c4.3,0,7.7,1.5,10.3,4.6c2,2.4,3,5.9,3,10.6V110.6z"/>
	<path fill="#00FF00" d="M248.5,95.6h-19.4c-0.3-1-0.4-1.9-0.4-2.7c0-1.1,0.2-2.3,0.6-3.3h6.5c-0.5-2.5-1.9-3.8-4.3-3.8
		c-1.6,0-2.9,0.7-3.9,2c-1,1.4-1.5,3.1-1.5,5.2c0,2.2,0.5,4,1.5,5.4c1,1.4,2.2,2.1,3.8,2.1c1.3,0,2.5-0.6,3.7-1.9l7.3,8.8
		c-3.4,2.7-7.2,4-11.3,4c-5.1,0-9.3-1.7-12.7-5.1c-3.4-3.4-5.2-7.6-5.2-12.6c0-5,1.7-9.2,5.2-12.6c3.5-3.4,7.7-5.2,12.8-5.2
		c4.9,0,9.1,1.7,12.5,5c3.4,3.4,5,7.5,5,12.4C248.7,93.7,248.6,94.5,248.5,95.6z"/>
	<path fill="#00FF00" d="M294.2,63.7V77c-1-0.3-1.8-0.5-2.3-0.5c-1,0-1.9,0.4-2.7,1.2c-0.8,0.8-1.1,1.7-1.1,2.8
		c0,0.9,0.4,2.1,1.2,3.6l1.1,1.8c1.9,3.3,2.9,6.5,2.9,9.6c0,4.5-1.6,8.4-4.8,11.5s-7.2,4.7-11.8,4.7c-2.2,0-4.4-0.5-6.6-1.5V96.7
		c1.3,0.8,2.5,1.3,3.5,1.3c1.2,0,2.2-0.3,3-1c0.8-0.7,1.2-1.6,1.2-2.6c0-0.7-0.6-2.2-1.9-4.5c-2.1-3.6-3.1-7.3-3.1-10.9
		c0-4.4,1.6-8.2,4.7-11.4c3.1-3.2,6.9-4.8,11.2-4.8C290.5,62.8,292.3,63.1,294.2,63.7z"/>
	<path fill="#00FF00" d="M311.7,63.9V77h5.7v13.5h-5.7c0,2.7,0.4,4.6,1.3,5.6c0.9,1,2.4,1.5,4.7,1.5v13.4c-0.7,0-1.2,0-1.5,0
		c-2.9,0-5.6-0.7-8.2-2c-2.6-1.3-4.6-3.2-6.2-5.5c-2-2.9-2.9-6.8-2.9-11.7v-28H311.7z"/>
	<path fill="#00FF00" d="M342.6,97.8V111c-1,0.2-2,0.3-2.9,0.3c-5.1,0-9.4-1.7-12.8-5.1c-3.4-3.4-5.1-7.6-5.1-12.7
		c0-4.9,1.7-9.1,5.2-12.6c3.5-3.4,7.7-5.2,12.6-5.2c5.5,0,9.9,1.6,13,4.8c3.2,3.2,4.8,7.6,4.8,13.2v16.7h-12.8V94.8
		c0-1.8-0.4-3.2-1.3-4.3c-0.9-1.1-2.1-1.6-3.5-1.6c-1.3,0-2.5,0.5-3.5,1.5c-1,1-1.5,2.1-1.5,3.5c0,1.4,0.4,2.6,1.3,3.5
		c0.9,0.9,2,1.4,3.4,1.4C340.6,98.7,341.7,98.4,342.6,97.8z"/>
	<path fill="#00FF00" d="M383.5,76.2v13.7c-0.9-0.5-1.7-0.8-2.4-0.8c-2.3,0-3.5,1.8-3.5,5.3v16.2h-12.8V92c0-4.9,1.3-8.8,4-11.8
		c2.7-2.9,6.3-4.4,10.8-4.4C380.6,75.8,381.9,75.9,383.5,76.2z"/>
	<path fill="#00FF00" d="M398.7,63.9V77h5.7v13.5h-5.7c0,2.7,0.4,4.6,1.3,5.6c0.9,1,2.4,1.5,4.7,1.5v13.4c-0.7,0-1.2,0-1.5,0
		c-2.9,0-5.6-0.7-8.2-2c-2.6-1.3-4.6-3.2-6.2-5.5c-2-2.9-2.9-6.8-2.9-11.7v-28H398.7z"/>
	<path fill="#00FF00" d="M163.6,147.7V161c-1-0.3-1.8-0.5-2.3-0.5c-1,0-1.9,0.4-2.7,1.2c-0.8,0.8-1.1,1.7-1.1,2.8
		c0,0.9,0.4,2.1,1.2,3.6l1.1,1.8c1.9,3.3,2.9,6.5,2.9,9.6c0,4.5-1.6,8.4-4.8,11.5c-3.2,3.1-7.2,4.7-11.8,4.7c-2.2,0-4.4-0.5-6.6-1.5
		v-13.5c1.3,0.8,2.5,1.3,3.5,1.3c1.2,0,2.2-0.3,3-1c0.8-0.7,1.2-1.6,1.2-2.6c0-0.7-0.6-2.2-1.9-4.5c-2.1-3.6-3.1-7.3-3.1-10.9
		c0-4.4,1.6-8.2,4.7-11.4c3.1-3.2,6.9-4.8,11.2-4.8C159.9,146.8,161.7,147.1,163.6,147.7z"/>
	<path fill="#00FF00" d="M190.6,178.9l12.7-0.5c-0.4,4.9-2.2,9-5.5,12.1c-3.3,3.2-7.3,4.8-12.1,4.8c-5,0-9.2-1.7-12.7-5.2
		s-5.2-7.8-5.2-12.8c0-4.8,1.7-8.9,5.2-12.3s7.7-5.1,12.5-5.1c4.3,0,8,1.3,11.3,4c3.3,2.7,5.3,6.1,6.1,10.3l-13,0.5
		c-1.1-1.5-2.5-2.2-4.2-2.2c-1.5,0-2.7,0.5-3.6,1.4c-0.9,1-1.4,2.2-1.4,3.6c0,1.5,0.5,2.7,1.5,3.7c1,1,2.2,1.5,3.7,1.5
		C188.1,182.7,189.7,181.4,190.6,178.9z"/>
	<path fill="#00FF00" d="M227.5,160.2v13.7c-0.9-0.5-1.7-0.8-2.4-0.8c-2.3,0-3.5,1.8-3.5,5.3v16.2h-12.8V176c0-4.9,1.3-8.8,4-11.8
		c2.7-2.9,6.3-4.4,10.8-4.4C224.6,159.8,225.9,159.9,227.5,160.2z"/>
	<path fill="#00FF00" d="M264.8,179.6h-19.4c-0.3-1-0.4-1.9-0.4-2.7c0-1.1,0.2-2.3,0.6-3.3h6.5c-0.5-2.5-1.9-3.8-4.3-3.8
		c-1.6,0-2.9,0.7-3.9,2c-1,1.4-1.5,3.1-1.5,5.2c0,2.2,0.5,4,1.5,5.4c1,1.4,2.2,2.1,3.8,2.1c1.3,0,2.5-0.6,3.7-1.9l7.3,8.8
		c-3.4,2.7-7.2,4-11.3,4c-5.1,0-9.3-1.7-12.7-5.1c-3.4-3.4-5.2-7.6-5.2-12.6c0-5,1.7-9.2,5.2-12.6c3.5-3.4,7.7-5.2,12.8-5.2
		c4.9,0,9.1,1.7,12.5,5c3.4,3.4,5,7.5,5,12.4C264.9,177.7,264.9,178.5,264.8,179.6z"/>
	<path fill="#00FF00" d="M303.6,179.6h-19.4c-0.3-1-0.4-1.9-0.4-2.7c0-1.1,0.2-2.3,0.6-3.3h6.5c-0.5-2.5-1.9-3.8-4.3-3.8
		c-1.6,0-2.9,0.7-3.9,2c-1,1.4-1.5,3.1-1.5,5.2c0,2.2,0.5,4,1.5,5.4c1,1.4,2.2,2.1,3.8,2.1c1.3,0,2.5-0.6,3.7-1.9l7.3,8.8
		c-3.4,2.7-7.2,4-11.3,4c-5.1,0-9.3-1.7-12.7-5.1c-3.4-3.4-5.2-7.6-5.2-12.6c0-5,1.7-9.2,5.2-12.6c3.5-3.4,7.7-5.2,12.8-5.2
		c4.9,0,9.1,1.7,12.5,5c3.4,3.4,5,7.5,5,12.4C303.7,177.7,303.7,178.5,303.6,179.6z"/>
	<path fill="#00FF00" d="M339.3,194.6h-12.8v-19.2c0-2-0.8-2.9-2.4-2.9c-1.6,0-2.4,1-2.4,2.9v19.2h-12.8v-19c0-4.4,1.5-8.2,4.4-11.2
		s6.5-4.6,10.8-4.6c4.9,0,8.8,1.8,11.7,5.3c2.3,2.8,3.5,6.6,3.5,11.5V194.6z"/>
</g>
<g>
	<path fill="#55F3E8" d="M107.6,304.2l8.3,0.2c-0.5,4.3-2,7.6-4.5,10c-2.4,2.3-5.6,3.5-9.5,3.5c-4,0-7.3-1.3-10-4
		c-2.7-2.7-4-6-4-9.9c0-4,1.4-7.3,4.1-10c2.7-2.7,6.1-4.1,10.1-4.1c3.9,0,7.2,1.3,9.8,4c1.8,1.8,3.1,4.4,3.9,7.7l-8.5,0.6
		c-1-2.9-2.8-4.4-5.4-4.4c-1.7,0-3.1,0.6-4.2,1.8c-1.1,1.2-1.7,2.7-1.7,4.5c0,1.7,0.5,3.2,1.6,4.3c1.1,1.1,2.4,1.7,4.1,1.7
		c1.7,0,3-0.5,4-1.5C106.8,307.5,107.4,306.1,107.6,304.2z"/>
	<path fill="#55F3E8" d="M129.9,309.9v7.6c-0.6,0.1-1.1,0.2-1.6,0.2c-2.9,0-5.4-1-7.3-2.9c-2-1.9-2.9-4.3-2.9-7.2c0-2.8,1-5.2,3-7.2
		c2-2,4.4-2.9,7.2-2.9c3.2,0,5.6,0.9,7.5,2.8c1.8,1.8,2.7,4.4,2.7,7.5v9.6H131v-9c0-1-0.3-1.8-0.8-2.5c-0.5-0.6-1.2-0.9-2-0.9
		c-0.8,0-1.4,0.3-2,0.8c-0.6,0.6-0.8,1.2-0.8,2c0,0.8,0.3,1.5,0.8,2c0.5,0.5,1.2,0.8,1.9,0.8C128.8,310.4,129.4,310.3,129.9,309.9z"
		/>
	<path fill="#55F3E8" d="M149.1,290.6v7.5h3.3v7.7h-3.3c0,1.5,0.2,2.6,0.7,3.2s1.4,0.9,2.7,0.9v7.7c-0.4,0-0.7,0-0.8,0
		c-1.7,0-3.2-0.4-4.7-1.2c-1.5-0.8-2.6-1.8-3.5-3.1c-1.1-1.7-1.7-3.9-1.7-6.7v-16H149.1z"/>
	<path fill="#55F3E8" d="M167.9,308.3l7.2-0.3c-0.2,2.8-1.3,5.1-3.1,6.9c-1.9,1.8-4.2,2.7-6.9,2.7c-2.9,0-5.3-1-7.3-3s-3-4.4-3-7.3
		c0-2.7,1-5.1,3-7.1s4.4-2.9,7.2-2.9c2.4,0,4.6,0.8,6.4,2.3c1.9,1.5,3,3.5,3.5,5.9l-7.4,0.3c-0.6-0.8-1.4-1.2-2.4-1.2
		c-0.8,0-1.5,0.3-2.1,0.8c-0.5,0.5-0.8,1.2-0.8,2.1c0,0.8,0.3,1.6,0.8,2.1c0.6,0.6,1.3,0.9,2.1,0.9
		C166.5,310.4,167.4,309.7,167.9,308.3z"/>
	<path fill="#55F3E8" d="M185.7,290.6v8.1c1.2-0.9,2.5-1.3,3.7-1.3c1.9,0,3.4,0.7,4.5,2c1.1,1.4,1.7,3.2,1.7,5.5v12.3h-7.3v-10.3
		c0-0.8-0.1-1.4-0.3-1.7c-0.2-0.3-0.5-0.4-1-0.4c-0.8,0-1.2,0.6-1.2,1.8v10.6h-7.3v-26.7H185.7z"/>
	<path fill="#55F3E8" d="M216.2,290.6v7.5h3.3v7.7h-3.3c0,1.5,0.2,2.6,0.7,3.2s1.4,0.9,2.7,0.9v7.7c-0.4,0-0.7,0-0.8,0
		c-1.7,0-3.2-0.4-4.7-1.2c-1.5-0.8-2.6-1.8-3.5-3.1c-1.1-1.7-1.7-3.9-1.7-6.7v-16H216.2z"/>
	<path fill="#55F3E8" d="M230.4,290.6v8.1c1.2-0.9,2.5-1.3,3.7-1.3c1.9,0,3.4,0.7,4.5,2c1.1,1.4,1.7,3.2,1.7,5.5v12.3h-7.3v-10.3
		c0-0.8-0.1-1.4-0.3-1.7c-0.2-0.3-0.5-0.4-1-0.4c-0.8,0-1.2,0.6-1.2,1.8v10.6h-7.3v-26.7H230.4z"/>
	<path fill="#55F3E8" d="M263.7,308.7h-11.1c-0.2-0.6-0.3-1.1-0.3-1.5c0-0.7,0.1-1.3,0.4-1.9h3.7c-0.3-1.4-1.1-2.2-2.4-2.2
		c-0.9,0-1.7,0.4-2.2,1.2c-0.6,0.8-0.9,1.8-0.9,3c0,1.3,0.3,2.3,0.8,3.1s1.3,1.2,2.2,1.2c0.7,0,1.4-0.4,2.1-1.1l4.2,5
		c-1.9,1.5-4.1,2.3-6.5,2.3c-2.9,0-5.3-1-7.3-2.9c-2-1.9-2.9-4.3-2.9-7.2c0-2.9,1-5.3,3-7.2c2-2,4.4-2.9,7.3-2.9
		c2.8,0,5.2,1,7.1,2.9c1.9,1.9,2.9,4.3,2.9,7.1C263.7,307.6,263.7,308.1,263.7,308.7z"/>
	<path fill="#55F3E8" d="M303.4,317.2h-7.3v-10.5c0-0.8-0.1-1.4-0.3-1.7s-0.5-0.5-0.9-0.5c-0.8,0-1.2,0.7-1.2,2.2v10.5h-7.3v-10.5
		c0-0.8-0.1-1.4-0.3-1.7s-0.5-0.5-0.9-0.5c-0.8,0-1.2,0.7-1.2,2.2v10.5h-7.3v-12c0-2.2,0.7-4,2.2-5.6c1.5-1.5,3.3-2.3,5.4-2.3
		c2.2,0,4.1,0.9,5.8,2.7c1.9-1.8,3.8-2.7,5.7-2.7c2.4,0,4.4,0.9,5.9,2.7c1.2,1.4,1.7,3.4,1.7,6V317.2z"/>
	<path fill="#55F3E8" d="M316.9,297.4c2.8,0,5.1,1,7.1,3c2,2,3,4.4,3,7.1c0,2.8-1,5.2-3,7.2c-2,2-4.4,3-7.2,3s-5.2-1-7.2-3
		c-2-2-3-4.4-3-7.2c0-2.9,1-5.3,3-7.2C311.5,298.3,314,297.4,316.9,297.4z M316.7,304.6c-0.8,0-1.4,0.3-2,0.8s-0.8,1.3-0.8,2.1
		c0,0.8,0.3,1.5,0.8,2.1c0.6,0.6,1.2,0.9,2,0.9c0.8,0,1.4-0.3,2-0.9c0.6-0.6,0.8-1.3,0.8-2.1c0-0.8-0.3-1.5-0.8-2.1
		S317.5,304.6,316.7,304.6z"/>
	<path fill="#55F3E8" d="M347.4,317.2h-7.3v-11c0-1.1-0.5-1.7-1.4-1.7c-0.9,0-1.4,0.6-1.4,1.7v11H330v-10.9c0-2.5,0.8-4.7,2.5-6.4
		s3.7-2.6,6.2-2.6c2.8,0,5,1,6.7,3c1.3,1.6,2,3.8,2,6.6V317.2z"/>
	<path fill="#55F3E8" d="M370.8,308.7h-11.1c-0.2-0.6-0.3-1.1-0.3-1.5c0-0.7,0.1-1.3,0.4-1.9h3.7c-0.3-1.4-1.1-2.2-2.4-2.2
		c-0.9,0-1.7,0.4-2.2,1.2c-0.6,0.8-0.9,1.8-0.9,3c0,1.3,0.3,2.3,0.8,3.1s1.3,1.2,2.2,1.2c0.7,0,1.4-0.4,2.1-1.1l4.2,5
		c-1.9,1.5-4.1,2.3-6.5,2.3c-2.9,0-5.3-1-7.3-2.9c-2-1.9-2.9-4.3-2.9-7.2c0-2.9,1-5.3,3-7.2c2-2,4.4-2.9,7.3-2.9
		c2.8,0,5.2,1,7.1,2.9c1.9,1.9,2.9,4.3,2.9,7.1C370.9,307.6,370.8,308.1,370.8,308.7z"/>
	<path fill="#55F3E8" d="M376.3,325.8v-6.3c1,0.4,1.9,0.6,2.6,0.6c2.4,0,3.9-1.3,4.6-4c-1.3,0.8-2.5,1.1-3.8,1.1
		c-1.8,0-3.3-0.7-4.5-2s-1.8-3.1-1.8-5.1v-12.2h7.3v10.5c0,1.2,0.5,1.7,1.4,1.7c0.9,0,1.4-0.6,1.4-1.9v-10.3h7.3v17.4
		c0,3.2-0.9,5.9-2.7,7.9c-2.2,2.4-4.8,3.6-7.9,3.6C379,326.6,377.7,326.3,376.3,325.8z"/>
	<path fill="#55F3E8" d="M74.3,357.9v7.6c-0.6,0.1-1.1,0.2-1.6,0.2c-2.9,0-5.4-1-7.3-2.9c-2-1.9-2.9-4.3-2.9-7.2c0-2.8,1-5.2,3-7.2
		c2-2,4.4-2.9,7.2-2.9c3.2,0,5.6,0.9,7.5,2.8c1.8,1.8,2.7,4.4,2.7,7.5v9.6h-7.3v-9c0-1-0.3-1.8-0.8-2.5c-0.5-0.6-1.2-0.9-2-0.9
		c-0.8,0-1.4,0.3-2,0.8c-0.6,0.6-0.8,1.2-0.8,2c0,0.8,0.3,1.5,0.8,2c0.5,0.5,1.2,0.8,1.9,0.8C73.1,358.4,73.7,358.3,74.3,357.9z"/>
	<path fill="#55F3E8" d="M104.3,365.2H97v-11c0-1.1-0.5-1.7-1.4-1.7c-0.9,0-1.4,0.6-1.4,1.7v11H87v-10.9c0-2.5,0.8-4.7,2.5-6.4
		s3.7-2.6,6.2-2.6c2.8,0,5,1,6.7,3c1.3,1.6,2,3.8,2,6.6V365.2z"/>
	<path fill="#55F3E8" d="M120.6,338.6h7.3v16.2c0,3-0.8,5.4-2.3,7.3c-0.9,1.1-2,1.9-3.4,2.6s-2.8,1-4.3,1c-2.9,0-5.4-1-7.3-2.9
		s-3-4.3-3-7.2c0-2.7,1-5.1,3-7.1c2-2,4.3-3,7-3c0.4,0,1.1,0,2,0.1v8c-0.6-0.5-1.2-0.7-1.8-0.7c-0.8,0-1.4,0.3-1.9,0.8
		c-0.5,0.6-0.8,1.2-0.8,2c0,0.8,0.3,1.4,0.8,1.9c0.6,0.5,1.2,0.8,2,0.8c1.9,0,2.8-1.3,2.8-3.9V338.6z"/>
	<path fill="#55F3E8" d="M152.6,357.9v7.6c-0.6,0.1-1.1,0.2-1.6,0.2c-2.9,0-5.4-1-7.3-2.9c-2-1.9-2.9-4.3-2.9-7.2c0-2.8,1-5.2,3-7.2
		c2-2,4.4-2.9,7.2-2.9c3.2,0,5.6,0.9,7.5,2.8c1.8,1.8,2.7,4.4,2.7,7.5v9.6h-7.3v-9c0-1-0.3-1.8-0.8-2.5c-0.5-0.6-1.2-0.9-2-0.9
		c-0.8,0-1.4,0.3-2,0.8c-0.6,0.6-0.8,1.2-0.8,2c0,0.8,0.3,1.5,0.8,2c0.5,0.5,1.2,0.8,1.9,0.8C151.4,358.4,152,358.3,152.6,357.9z"/>
	<path fill="#55F3E8" d="M179.9,345.8l-9.1,20.2l-9-20.2h7l2.1,5.3l2.3-5.3H179.9z"/>
	<path fill="#55F3E8" d="M189.9,345.4c2.8,0,5.1,1,7.1,3c2,2,3,4.4,3,7.1c0,2.8-1,5.2-3,7.2c-2,2-4.4,3-7.2,3c-2.8,0-5.2-1-7.2-3
		c-2-2-3-4.4-3-7.2c0-2.9,1-5.2,3-7.2C184.5,346.3,187,345.4,189.9,345.4z M189.7,352.6c-0.8,0-1.4,0.3-2,0.8s-0.8,1.3-0.8,2.1
		c0,0.8,0.3,1.5,0.8,2.1c0.6,0.6,1.2,0.9,2,0.9c0.8,0,1.4-0.3,2-0.9c0.6-0.6,0.8-1.3,0.8-2.1c0-0.8-0.3-1.5-0.8-2.1
		S190.5,352.6,189.7,352.6z"/>
	<path fill="#55F3E8" d="M210.3,345.8v19.5H203v-19.5H210.3z M206.7,337.1c1,0,1.8,0.3,2.6,1c0.7,0.7,1.1,1.5,1.1,2.5
		c0,1-0.3,1.8-1,2.5c-0.7,0.7-1.6,1-2.6,1c-1.1,0-1.9-0.3-2.6-1c-0.7-0.7-1-1.5-1-2.5c0-1,0.4-1.8,1.1-2.5
		C204.8,337.4,205.7,337.1,206.7,337.1z"/>
	<path fill="#55F3E8" d="M226.6,338.6h7.3v16.2c0,3-0.8,5.4-2.3,7.3c-0.9,1.1-2,1.9-3.4,2.6s-2.8,1-4.3,1c-2.9,0-5.4-1-7.3-2.9
		s-3-4.3-3-7.2c0-2.7,1-5.1,3-7.1c2-2,4.3-3,7-3c0.4,0,1.1,0,2,0.1v8c-0.6-0.5-1.2-0.7-1.8-0.7c-0.8,0-1.4,0.3-1.9,0.8
		c-0.5,0.6-0.8,1.2-0.8,2c0,0.8,0.3,1.4,0.8,1.9c0.6,0.5,1.2,0.8,2,0.8c1.9,0,2.8-1.3,2.8-3.9V338.6z"/>
	<path fill="#55F3E8" d="M254.3,338.6v7.5h3.3v7.7h-3.3c0,1.5,0.2,2.6,0.7,3.2s1.4,0.9,2.7,0.9v7.7c-0.4,0-0.7,0-0.8,0
		c-1.7,0-3.2-0.4-4.7-1.2c-1.5-0.8-2.6-1.8-3.5-3.1c-1.1-1.7-1.7-3.9-1.7-6.7v-16H254.3z"/>
	<path fill="#55F3E8" d="M268.4,338.6v8.1c1.2-0.9,2.5-1.3,3.7-1.3c1.9,0,3.4,0.7,4.5,2c1.1,1.4,1.7,3.2,1.7,5.5v12.3H271v-10.3
		c0-0.8-0.1-1.4-0.3-1.7c-0.2-0.3-0.5-0.4-1-0.4c-0.8,0-1.2,0.6-1.2,1.8v10.6h-7.3v-26.7H268.4z"/>
	<path fill="#55F3E8" d="M301.7,356.7h-11.1c-0.2-0.6-0.3-1.1-0.3-1.5c0-0.7,0.1-1.3,0.4-1.9h3.7c-0.3-1.4-1.1-2.2-2.4-2.2
		c-0.9,0-1.7,0.4-2.2,1.2c-0.6,0.8-0.9,1.8-0.9,3c0,1.3,0.3,2.3,0.8,3.1s1.3,1.2,2.2,1.2c0.7,0,1.4-0.4,2.1-1.1l4.2,5
		c-1.9,1.5-4.1,2.3-6.5,2.3c-2.9,0-5.3-1-7.3-2.9c-2-1.9-2.9-4.3-2.9-7.2c0-2.9,1-5.3,3-7.2c2-2,4.4-2.9,7.3-2.9
		c2.8,0,5.2,1,7.1,2.9c1.9,1.9,2.9,4.3,2.9,7.1C301.7,355.6,301.7,356.1,301.7,356.7z"/>
	<path fill="#55F3E8" d="M321.6,338.6v16c0,2.6,0.9,3.9,2.8,3.9c0.8,0,1.5-0.3,2-0.8c0.6-0.5,0.8-1.2,0.8-2c0-0.8-0.3-1.5-0.8-2
		c-0.5-0.5-1.2-0.8-1.9-0.8c-0.5,0-1.1,0.2-1.8,0.7v-8c0.9-0.1,1.5-0.1,2-0.1c2.7,0,5.1,1,7.1,3c2,2,2.9,4.4,2.9,7.1
		c0,2.9-1,5.3-3,7.2s-4.4,2.9-7.3,2.9c-1.5,0-2.9-0.3-4.3-1s-2.5-1.5-3.4-2.6c-1.6-1.9-2.3-4.3-2.3-7.3v-16.2H321.6z"/>
	<path fill="#55F3E8" d="M348.5,345.6v7.8c-0.5-0.3-1-0.4-1.4-0.4c-1.3,0-2,1-2,3v9.2h-7.3v-10.6c0-2.8,0.8-5.1,2.3-6.7
		c1.5-1.7,3.6-2.5,6.2-2.5C346.9,345.4,347.6,345.4,348.5,345.6z"/>
	<path fill="#55F3E8" d="M358,345.8v19.5h-7.3v-19.5H358z M354.3,337.1c1,0,1.8,0.3,2.6,1c0.7,0.7,1.1,1.5,1.1,2.5
		c0,1-0.3,1.8-1,2.5c-0.7,0.7-1.6,1-2.6,1s-1.9-0.3-2.6-1c-0.7-0.7-1-1.5-1-2.5c0-1,0.4-1.8,1.1-2.5
		C352.5,337.4,353.3,337.1,354.3,337.1z"/>
	<path fill="#55F3E8" d="M374.2,356.3l7.2-0.3c-0.2,2.8-1.3,5.1-3.1,6.9c-1.9,1.8-4.2,2.7-6.9,2.7c-2.9,0-5.3-1-7.3-3s-3-4.4-3-7.3
		c0-2.7,1-5.1,3-7.1s4.4-2.9,7.2-2.9c2.4,0,4.6,0.8,6.4,2.3c1.9,1.5,3,3.5,3.5,5.9l-7.4,0.3c-0.6-0.8-1.4-1.2-2.4-1.2
		c-0.8,0-1.5,0.3-2.1,0.8s-0.8,1.2-0.8,2.1c0,0.8,0.3,1.6,0.8,2.1c0.6,0.6,1.3,0.9,2.1,0.9C372.8,358.4,373.7,357.7,374.2,356.3z"/>
	<path fill="#55F3E8" d="M392,338.6v26.7h-7.3v-26.7H392z M403.1,345.8l-3.6,7.1l5.3,12.4h-8.1l-4.6-12.7l3.3-6.8H403.1z"/>
	<path fill="#55F3E8" d="M418.4,346v7.7c-1,0-1.7,0.2-2.1,0.6c-0.4,0.4-0.6,1.1-0.7,2.3c-0.3,3.8-1.8,6.4-4.4,8
		c-1.4,0.8-3.3,1.2-5.8,1.2h-1V358h0.3c1.2,0,2-0.2,2.5-0.7s0.8-1.3,0.9-2.6c0.1-2,0.3-3.4,0.6-4.2c0.3-0.8,0.8-1.6,1.6-2.4
		c1.4-1.4,3.4-2.1,6-2.1H418.4z"/>
	<path fill="#55F3E8" d="M75.2,394h7.3v11c0,1.1,0.5,1.7,1.4,1.7c0.9,0,1.4-0.6,1.4-1.7v-11h7.3v10.9c0,2.5-0.8,4.7-2.5,6.4
		s-3.7,2.6-6.2,2.6c-2.8,0-5-1-6.7-3c-1.3-1.6-2-3.8-2-6.6V394z"/>
	<path fill="#55F3E8" d="M109,394v7.7c-1,0-1.7,0.2-2.1,0.6c-0.4,0.4-0.6,1.1-0.7,2.3c-0.3,3.8-1.8,6.4-4.4,8
		c-1.4,0.8-3.3,1.2-5.8,1.2h-1V406h0.3c1.2,0,2-0.2,2.5-0.7c0.5-0.5,0.8-1.3,0.9-2.6c0.1-2,0.3-3.4,0.6-4.2c0.3-0.8,0.8-1.6,1.6-2.4
		c1.4-1.4,3.4-2.1,6-2.1H109z"/>
	<path fill="#55F3E8" d="M118.7,393.8v19.5h-7.3v-19.5H118.7z M115,385.1c1,0,1.8,0.3,2.6,1c0.7,0.7,1.1,1.5,1.1,2.5
		c0,1-0.3,1.8-1,2.5c-0.7,0.7-1.6,1-2.6,1c-1.1,0-1.9-0.3-2.6-1c-0.7-0.7-1-1.5-1-2.5c0-1,0.4-1.8,1.1-2.5
		C113.2,385.4,114,385.1,115,385.1z"/>
	<path fill="#55F3E8" d="M140.3,413.2H133v-11c0-1.1-0.5-1.7-1.4-1.7c-0.9,0-1.4,0.6-1.4,1.7v11H123v-10.9c0-2.5,0.8-4.7,2.5-6.4
		s3.7-2.6,6.2-2.6c2.8,0,5,1,6.7,3c1.3,1.6,2,3.8,2,6.6V413.2z"/>
	<path fill="#55F3E8" d="M155,405.2v6.7c-1.1,0.4-2.1,0.6-3,0.6c-2.4,0-4.4-0.9-6-2.7c-1.6-1.8-2.5-4-2.5-6.5c0-2.8,1-5.1,2.9-7.1
		c2-1.9,4.4-2.9,7.2-2.9c1.5,0,3,0.3,4.4,0.9c1.4,0.6,2.5,1.4,3.3,2.5c1.3,1.7,2,4.2,2,7.4v6.4c0,3.5-1,6.3-3,8.5s-4.5,3.3-7.7,3.3
		c-1,0-2.2-0.2-3.7-0.7v-6.6c1,0.5,1.9,0.8,2.9,0.8c1.3,0,2.3-0.4,3-1.3c0.7-0.9,1.1-2.1,1.1-3.7v-7.3c0-2-0.8-3.1-2.5-3.1
		c-0.7,0-1.3,0.3-1.8,0.8c-0.5,0.5-0.8,1.2-0.8,1.9c0,0.7,0.3,1.4,0.8,1.9c0.5,0.5,1.1,0.7,1.9,0.7C154,405.6,154.5,405.4,155,405.2
		z"/>
	<path fill="#55F3E8" d="M185,386.6v26.7h-7.3v-26.7H185z"/>
	<path fill="#55F3E8" d="M208.4,404.7h-11.1c-0.2-0.6-0.3-1.1-0.3-1.5c0-0.7,0.1-1.3,0.4-1.9h3.7c-0.3-1.4-1.1-2.2-2.4-2.2
		c-0.9,0-1.7,0.4-2.2,1.2c-0.6,0.8-0.9,1.8-0.9,3c0,1.3,0.3,2.3,0.8,3.1c0.6,0.8,1.3,1.2,2.2,1.2c0.7,0,1.4-0.4,2.1-1.1l4.2,5
		c-1.9,1.5-4.1,2.3-6.5,2.3c-2.9,0-5.3-1-7.3-2.9c-2-1.9-2.9-4.3-2.9-7.2c0-2.9,1-5.3,3-7.2c2-2,4.4-2.9,7.3-2.9
		c2.8,0,5.2,1,7.1,2.9c1.9,1.9,2.9,4.3,2.9,7.1C208.5,403.6,208.4,404.1,208.4,404.7z"/>
	<path fill="#55F3E8" d="M222,398.1v7.7h-3.3v7.5h-7.3v-16.5c0-1.9,0.3-3.5,1-4.8c0.8-1.7,2-3,3.7-4.1c1.6-1.1,3.4-1.6,5.1-1.6
		l0.8,0v7.7c-0.2,0-0.3,0-0.4,0c-0.9,0-1.6,0.3-2.1,0.9c-0.5,0.6-0.8,1.5-0.8,2.6v0.7H222z"/>
	<path fill="#55F3E8" d="M231.7,386.6v7.5h3.3v7.7h-3.3c0,1.5,0.2,2.6,0.7,3.2s1.4,0.9,2.7,0.9v7.7c-0.4,0-0.7,0-0.8,0
		c-1.7,0-3.2-0.4-4.7-1.2c-1.5-0.8-2.6-1.8-3.5-3.1c-1.1-1.7-1.7-3.9-1.7-6.7v-16H231.7z"/>
	<path fill="#55F3E8" d="M259.4,405.9v7.6c-0.6,0.1-1.1,0.2-1.6,0.2c-2.9,0-5.4-1-7.3-2.9c-2-1.9-2.9-4.3-2.9-7.2c0-2.8,1-5.2,3-7.2
		c2-2,4.4-2.9,7.2-2.9c3.2,0,5.6,0.9,7.5,2.8c1.8,1.8,2.7,4.4,2.7,7.5v9.6h-7.3v-9c0-1-0.3-1.8-0.8-2.5c-0.5-0.6-1.2-0.9-2-0.9
		c-0.8,0-1.4,0.3-2,0.8c-0.6,0.6-0.8,1.2-0.8,2c0,0.8,0.3,1.5,0.8,2c0.5,0.5,1.2,0.8,1.9,0.8C258.2,406.4,258.8,406.3,259.4,405.9z"
		/>
	<path fill="#55F3E8" d="M289.4,413.2h-7.3v-11c0-1.1-0.5-1.7-1.4-1.7c-0.9,0-1.4,0.6-1.4,1.7v11h-7.3v-10.9c0-2.5,0.8-4.7,2.5-6.4
		s3.7-2.6,6.2-2.6c2.8,0,5,1,6.7,3c1.3,1.6,2,3.8,2,6.6V413.2z"/>
	<path fill="#55F3E8" d="M305.7,386.6h7.3v16.2c0,3-0.8,5.4-2.3,7.3c-0.9,1.1-2,1.9-3.4,2.6s-2.8,1-4.3,1c-2.9,0-5.4-1-7.3-2.9
		s-3-4.3-3-7.2c0-2.7,1-5.1,3-7.1c2-2,4.3-3,7-3c0.4,0,1.1,0,2,0.1v8c-0.6-0.5-1.2-0.7-1.8-0.7c-0.8,0-1.4,0.3-1.9,0.8
		c-0.5,0.6-0.8,1.2-0.8,2c0,0.8,0.3,1.4,0.8,1.9c0.6,0.5,1.2,0.8,2,0.8c1.9,0,2.8-1.3,2.8-3.9V386.6z"/>
	<path fill="#55F3E8" d="M337.5,393.6v7.8c-0.5-0.3-1-0.4-1.4-0.4c-1.3,0-2,1-2,3v9.2h-7.3v-10.6c0-2.8,0.8-5.1,2.3-6.7
		c1.5-1.7,3.6-2.5,6.2-2.5C335.9,393.4,336.6,393.4,337.5,393.6z"/>
	<path fill="#55F3E8" d="M347,393.8v19.5h-7.3v-19.5H347z M343.3,385.1c1,0,1.8,0.3,2.6,1c0.7,0.7,1.1,1.5,1.1,2.5
		c0,1-0.3,1.8-1,2.5c-0.7,0.7-1.6,1-2.6,1s-1.9-0.3-2.6-1c-0.7-0.7-1-1.5-1-2.5c0-1,0.4-1.8,1.1-2.5
		C341.5,385.4,342.3,385.1,343.3,385.1z"/>
	<path fill="#55F3E8" d="M361.7,405.2v6.7c-1.1,0.4-2.1,0.6-3,0.6c-2.4,0-4.4-0.9-6-2.7c-1.6-1.8-2.5-4-2.5-6.5c0-2.8,1-5.1,2.9-7.1
		s4.4-2.9,7.2-2.9c1.5,0,3,0.3,4.4,0.9c1.4,0.6,2.5,1.4,3.3,2.5c1.3,1.7,2,4.2,2,7.4v6.4c0,3.5-1,6.3-3,8.5s-4.5,3.3-7.7,3.3
		c-1,0-2.2-0.2-3.7-0.7v-6.6c1,0.5,1.9,0.8,2.9,0.8c1.3,0,2.3-0.4,3-1.3s1.1-2.1,1.1-3.7v-7.3c0-2-0.8-3.1-2.5-3.1
		c-0.7,0-1.3,0.3-1.8,0.8c-0.5,0.5-0.8,1.2-0.8,1.9c0,0.7,0.3,1.4,0.8,1.9c0.5,0.5,1.1,0.7,1.9,0.7
		C360.7,405.6,361.2,405.4,361.7,405.2z"/>
	<path fill="#55F3E8" d="M381.6,386.6v8.1c1.2-0.9,2.5-1.3,3.7-1.3c1.9,0,3.4,0.7,4.5,2c1.1,1.4,1.7,3.2,1.7,5.5v12.3h-7.3v-10.3
		c0-0.8-0.1-1.4-0.3-1.7c-0.2-0.3-0.5-0.4-1-0.4c-0.8,0-1.2,0.6-1.2,1.8v10.6h-7.3v-26.7H381.6z"/>
	<path fill="#55F3E8" d="M402.2,386.6v7.5h3.3v7.7h-3.3c0,1.5,0.2,2.6,0.7,3.2s1.4,0.9,2.7,0.9v7.7c-0.4,0-0.7,0-0.8,0
		c-1.7,0-3.2-0.4-4.7-1.2c-1.5-0.8-2.6-1.8-3.5-3.1c-1.1-1.7-1.7-3.9-1.7-6.7v-16H402.2z"/>
	<path fill="#55F3E8" d="M183.5,452.3l7.2-0.3c-0.2,2.8-1.3,5.1-3.1,6.9c-1.9,1.8-4.2,2.7-6.9,2.7c-2.9,0-5.3-1-7.3-3s-3-4.4-3-7.3
		c0-2.7,1-5.1,3-7.1s4.4-2.9,7.2-2.9c2.4,0,4.6,0.8,6.4,2.3c1.9,1.5,3,3.5,3.5,5.9l-7.4,0.3c-0.6-0.8-1.4-1.2-2.4-1.2
		c-0.8,0-1.5,0.3-2.1,0.8c-0.5,0.5-0.8,1.2-0.8,2.1c0,0.8,0.3,1.6,0.8,2.1c0.6,0.6,1.3,0.9,2.1,0.9
		C182.1,454.4,183,453.7,183.5,452.3z"/>
	<path fill="#55F3E8" d="M203.2,441.4c2.8,0,5.1,1,7.1,3c2,2,3,4.4,3,7.1c0,2.8-1,5.2-3,7.2c-2,2-4.4,3-7.2,3c-2.8,0-5.2-1-7.2-3
		c-2-2-3-4.4-3-7.2c0-2.9,1-5.2,3-7.2C197.8,442.3,200.3,441.4,203.2,441.4z M203,448.6c-0.8,0-1.4,0.3-2,0.8s-0.8,1.3-0.8,2.1
		c0,0.8,0.3,1.5,0.8,2.1c0.6,0.6,1.2,0.9,2,0.9c0.8,0,1.4-0.3,2-0.9c0.6-0.6,0.8-1.3,0.8-2.1c0-0.8-0.3-1.5-0.8-2.1
		S203.8,448.6,203,448.6z"/>
	<path fill="#55F3E8" d="M233.7,461.2h-7.3v-11c0-1.1-0.5-1.7-1.4-1.7c-0.9,0-1.4,0.6-1.4,1.7v11h-7.3v-10.9c0-2.5,0.8-4.7,2.5-6.4
		s3.7-2.6,6.2-2.6c2.8,0,5,1,6.7,3c1.3,1.6,2,3.8,2,6.6V461.2z"/>
	<path fill="#55F3E8" d="M244.4,434.6v7.5h3.3v7.7h-3.3c0,1.5,0.2,2.6,0.7,3.2s1.4,0.9,2.7,0.9v7.7c-0.4,0-0.7,0-0.8,0
		c-1.7,0-3.2-0.4-4.7-1.2c-1.5-0.8-2.6-1.8-3.5-3.1c-1.1-1.7-1.7-3.9-1.7-6.7v-16H244.4z"/>
	<path fill="#55F3E8" d="M262,441.6v7.8c-0.5-0.3-1-0.4-1.4-0.4c-1.3,0-2,1-2,3v9.2h-7.3v-10.6c0-2.8,0.8-5.1,2.3-6.7
		c1.5-1.7,3.6-2.5,6.2-2.5C260.3,441.4,261.1,441.4,262,441.6z"/>
	<path fill="#55F3E8" d="M273.4,441.4c2.8,0,5.1,1,7.1,3c2,2,3,4.4,3,7.1c0,2.8-1,5.2-3,7.2c-2,2-4.4,3-7.2,3s-5.2-1-7.2-3
		c-2-2-3-4.4-3-7.2c0-2.9,1-5.2,3-7.2C268,442.3,270.4,441.4,273.4,441.4z M273.2,448.6c-0.8,0-1.4,0.3-2,0.8s-0.8,1.3-0.8,2.1
		c0,0.8,0.3,1.5,0.8,2.1c0.6,0.6,1.2,0.9,2,0.9c0.8,0,1.4-0.3,2-0.9c0.6-0.6,0.8-1.3,0.8-2.1c0-0.8-0.3-1.5-0.8-2.1
		S274,448.6,273.2,448.6z"/>
	<path fill="#55F3E8" d="M293.8,434.6v26.7h-7.3v-26.7H293.8z"/>
	<path fill="#55F3E8" d="M310.3,442v7.7c-1,0-1.7,0.2-2.1,0.6c-0.4,0.4-0.6,1.1-0.7,2.3c-0.3,3.8-1.8,6.4-4.4,8
		c-1.4,0.8-3.3,1.2-5.8,1.2h-1V454h0.3c1.2,0,2-0.2,2.5-0.7s0.8-1.3,0.9-2.6c0.1-2,0.3-3.4,0.6-4.2c0.3-0.8,0.8-1.6,1.6-2.4
		c1.4-1.4,3.4-2.1,6-2.1H310.3z"/>
	<path fill="#00FF00" d="M101.3,548v-7c1.6,0,2.4-0.6,2.4-1.8c0-1.1-0.6-1.7-1.8-1.7c-1.2,0-1.9,0.8-1.9,2.3v17.4h-7.9v-16.6
		c0-1.7,0.2-3.1,0.5-4.2c0.3-1.1,0.9-2.1,1.8-3.1c0.9-1.1,2.1-1.9,3.5-2.5s2.9-0.9,4.4-0.9c2.7,0,5,0.9,6.8,2.7
		c1.8,1.8,2.8,4.1,2.8,6.8c0,2.6-0.8,4.7-2.5,6.4c-1.5,1.5-3.8,2.2-6.8,2.2L101.3,548z"/>
	<path fill="#00FF00" d="M125.3,537.6v7.8c-0.5-0.3-1-0.4-1.4-0.4c-1.3,0-2,1-2,3v9.2h-7.3v-10.6c0-2.8,0.8-5.1,2.3-6.7
		c1.5-1.7,3.6-2.5,6.2-2.5C123.6,537.4,124.4,537.4,125.3,537.6z"/>
	<path fill="#00FF00" d="M146.6,548.7h-11.1c-0.2-0.6-0.3-1.1-0.3-1.5c0-0.7,0.1-1.3,0.4-1.9h3.7c-0.3-1.4-1.1-2.2-2.4-2.2
		c-0.9,0-1.7,0.4-2.2,1.2c-0.6,0.8-0.9,1.8-0.9,3c0,1.3,0.3,2.3,0.8,3.1c0.6,0.8,1.3,1.2,2.2,1.2c0.7,0,1.4-0.4,2.1-1.1l4.2,5
		c-1.9,1.5-4.1,2.3-6.5,2.3c-2.9,0-5.3-1-7.3-2.9c-2-1.9-2.9-4.3-2.9-7.2c0-2.9,1-5.3,3-7.2c2-2,4.4-2.9,7.3-2.9
		c2.8,0,5.2,1,7.1,2.9c1.9,1.9,2.9,4.3,2.9,7.1C146.7,547.6,146.6,548.1,146.6,548.7z"/>
	<path fill="#00FF00" d="M161.8,538v7.7c-1,0-1.7,0.2-2.1,0.6c-0.4,0.4-0.6,1.1-0.7,2.3c-0.3,3.8-1.8,6.4-4.4,8
		c-1.4,0.8-3.3,1.2-5.8,1.2h-1V550h0.3c1.2,0,2-0.2,2.5-0.7c0.5-0.5,0.8-1.3,0.9-2.6c0.1-2,0.3-3.4,0.6-4.2c0.3-0.8,0.8-1.6,1.6-2.4
		c1.4-1.4,3.4-2.1,6-2.1H161.8z"/>
	<path fill="#00FF00" d="M176.4,538v7.7c-1,0-1.7,0.2-2.1,0.6c-0.4,0.4-0.6,1.1-0.7,2.3c-0.3,3.8-1.8,6.4-4.4,8
		c-1.4,0.8-3.3,1.2-5.8,1.2h-1V550h0.3c1.2,0,2-0.2,2.5-0.7c0.5-0.5,0.8-1.3,0.9-2.6c0.1-2,0.3-3.4,0.6-4.2c0.3-0.8,0.8-1.6,1.6-2.4
		c1.4-1.4,3.4-2.1,6-2.1H176.4z"/>
	<path fill="#00FF00" d="M194.2,530v1.4c1.3,0.1,2.4,0.5,3.2,1.4c0.8,0.8,1.2,1.9,1.2,3.1c0,1.3-0.4,2.4-1.3,3.3s-2,1.3-3.3,1.3
		c-1.3,0-2.3-0.4-3.2-1.3s-1.3-2-1.3-3.3c0-1.4,0.4-2.6,1.3-3.7S192.8,530.5,194.2,530z"/>
	<path fill="#00FF00" d="M216.7,530.5v7.6c-0.6-0.2-1-0.3-1.3-0.3c-0.6,0-1.1,0.2-1.5,0.7s-0.6,1-0.6,1.6c0,0.5,0.2,1.2,0.7,2
		l0.6,1.1c1.1,1.9,1.6,3.7,1.6,5.5c0,2.6-0.9,4.8-2.8,6.6c-1.8,1.8-4.1,2.7-6.7,2.7c-1.3,0-2.5-0.3-3.8-0.9v-7.7
		c0.8,0.5,1.4,0.7,2,0.7c0.7,0,1.3-0.2,1.7-0.6c0.5-0.4,0.7-0.9,0.7-1.5c0-0.4-0.4-1.2-1.1-2.6c-1.2-2.1-1.8-4.2-1.8-6.2
		c0-2.5,0.9-4.7,2.7-6.5c1.8-1.8,3.9-2.7,6.4-2.7C214.6,529.9,215.7,530.1,216.7,530.5z"/>
	<path fill="#00FF00" d="M225.4,540.6v-1.4c-1.3-0.1-2.4-0.5-3.2-1.4s-1.2-1.9-1.2-3.1c0-1.3,0.4-2.4,1.3-3.3s2-1.3,3.3-1.3
		c1.3,0,2.3,0.4,3.2,1.3s1.3,2,1.3,3.3c0,1.4-0.4,2.6-1.3,3.7S226.9,540.2,225.4,540.6z"/>
	<path fill="#00FF00" d="M251.6,530.6v7.5h3.3v7.7h-3.3c0,1.5,0.2,2.6,0.7,3.2s1.4,0.9,2.7,0.9v7.7c-0.4,0-0.7,0-0.8,0
		c-1.7,0-3.2-0.4-4.7-1.2s-2.6-1.8-3.5-3.1c-1.1-1.7-1.7-3.9-1.7-6.7v-16H251.6z"/>
	<path fill="#00FF00" d="M267.7,537.4c2.8,0,5.1,1,7.1,3s3,4.4,3,7.1c0,2.8-1,5.2-3,7.2s-4.4,3-7.2,3s-5.2-1-7.2-3s-3-4.4-3-7.2
		c0-2.9,1-5.3,3-7.2S264.8,537.4,267.7,537.4z M267.5,544.6c-0.8,0-1.4,0.3-2,0.8s-0.8,1.3-0.8,2.1c0,0.8,0.3,1.5,0.8,2.1
		s1.2,0.9,2,0.9c0.8,0,1.4-0.3,2-0.9s0.8-1.3,0.8-2.1c0-0.8-0.3-1.5-0.8-2.1S268.3,544.6,267.5,544.6z"/>
	<path fill="#00FF00" d="M291.4,530.6h9.7c5.7,0,8.6,2.3,8.6,6.8c0,2.2-1,4.1-2.9,5.6c2.9,1.2,4.3,3.4,4.3,6.6
		c0,2.4-0.8,4.4-2.5,5.8c-0.8,0.7-1.7,1.2-2.6,1.4s-2.2,0.4-3.8,0.4h-1.5v-6.9h1.3c0.8,0,1.4-0.1,1.7-0.3s0.5-0.6,0.5-1.1
		c0-0.9-0.7-1.3-2-1.3h-1.5v-7.1c1.5,0,2.2-0.5,2.2-1.5c0-0.9-0.7-1.4-2-1.4h-1.5v19.5h-7.9V530.6z"/>
	<path fill="#00FF00" d="M332.8,548.7h-11.1c-0.2-0.6-0.3-1.1-0.3-1.5c0-0.7,0.1-1.3,0.4-1.9h3.7c-0.3-1.4-1.1-2.2-2.4-2.2
		c-0.9,0-1.7,0.4-2.2,1.2s-0.9,1.8-0.9,3c0,1.3,0.3,2.3,0.8,3.1s1.3,1.2,2.2,1.2c0.7,0,1.4-0.4,2.1-1.1l4.2,5
		c-1.9,1.5-4.1,2.3-6.5,2.3c-2.9,0-5.3-1-7.3-2.9s-2.9-4.3-2.9-7.2c0-2.9,1-5.3,3-7.2s4.4-2.9,7.3-2.9c2.8,0,5.2,1,7.1,2.9
		s2.9,4.3,2.9,7.1C332.9,547.6,332.9,548.1,332.8,548.7z"/>
	<path fill="#00FF00" d="M346.2,549.2v6.7c-1.1,0.4-2.1,0.6-3,0.6c-2.4,0-4.4-0.9-6-2.7s-2.5-4-2.5-6.5c0-2.8,1-5.1,2.9-7.1
		s4.4-2.9,7.2-2.9c1.5,0,3,0.3,4.4,0.9s2.5,1.4,3.3,2.5c1.3,1.7,2,4.2,2,7.4v6.4c0,3.5-1,6.3-3,8.5s-4.5,3.3-7.7,3.3
		c-1,0-2.2-0.2-3.7-0.7v-6.6c1,0.5,1.9,0.8,2.9,0.8c1.3,0,2.3-0.4,3-1.3s1.1-2.1,1.1-3.7v-7.3c0-2-0.8-3.1-2.5-3.1
		c-0.7,0-1.3,0.3-1.8,0.8s-0.8,1.2-0.8,1.9c0,0.7,0.3,1.4,0.8,1.9s1.1,0.7,1.9,0.7C345.3,549.6,345.8,549.4,346.2,549.2z"/>
	<path fill="#00FF00" d="M366.2,537.8v19.5h-7.3v-19.5H366.2z M362.6,529.1c1,0,1.8,0.3,2.6,1s1.1,1.5,1.1,2.5c0,1-0.3,1.8-1,2.5
		s-1.6,1-2.6,1s-1.9-0.3-2.6-1s-1-1.5-1-2.5c0-1,0.4-1.8,1.1-2.5S361.6,529.1,362.6,529.1z"/>
	<path fill="#00FF00" d="M387.9,557.2h-7.3v-11c0-1.1-0.5-1.7-1.4-1.7c-0.9,0-1.4,0.6-1.4,1.7v11h-7.3v-10.9c0-2.5,0.8-4.7,2.5-6.4
		s3.7-2.6,6.2-2.6c2.8,0,5,1,6.7,3c1.3,1.6,2,3.8,2,6.6V557.2z"/>
</g>
</svg>
